<svg width="594" height="597" viewBox="0 0 594 597" fill="none" xmlns="http://www.w3.org/2000/svg">
<g id="Group 1">
<path id="Vector" d="M510.66 156.068L510.632 156.076L510.604 156.085C459.204 172.371 394.66 180.708 313.161 180.708C233.394 180.708 167.364 172.371 115.715 156.084L114.963 158.468L115.662 156.068C88.2088 148.069 67.9608 138.89 54.417 129.22C40.8899 119.562 34.3791 109.665 33.5608 100.227C33.5905 91.8693 37.2373 84.7936 44.695 77.9334C50.1863 72.882 57.6654 68.0244 67.1083 62.97C66.4299 64.017 65.8285 65.0664 65.3001 66.1229C63.0938 70.5335 62.2206 74.9448 62.2206 79.6111C62.2206 91.2961 69.2854 101.235 81.9576 109.966C94.6197 118.689 113.289 126.509 137.493 133.954L137.535 133.966L137.578 133.978C182.584 146.101 244.902 155.093 314.894 155.093C387.345 155.093 446.942 146.099 493.702 133.358L493.714 133.354L493.726 133.351C518.933 126.211 538.042 118.312 550.901 109.464C563.766 100.611 570.76 90.516 570.76 78.9926C570.76 75.3976 569.978 71.9419 568.64 68.818C583.167 78.3893 590.51 89.5282 590.51 100.33C590.51 109.382 584.631 119.244 571.397 129.011C558.211 138.743 538.106 148.072 510.66 156.068ZM230.742 89.1866L228.516 89.4317V89.4525C209.781 91.2372 193.003 87.9523 180.371 81.2237C167.254 74.2372 158.724 63.6251 156.764 51.1323C156.051 46.0747 155.776 38.3323 160.344 31.3366C164.864 24.4156 174.544 17.6081 195.125 15.3336C205.686 14.4264 214.974 15.1314 221.822 17.2795C228.678 19.4303 232.507 22.8089 233.5 26.8848C233.66 28.3595 233.42 29.6242 232.715 30.851C232.106 31.9118 231.088 33.0506 229.46 34.2753C225.54 31.9952 220.234 30.3035 214.599 29.2875C208.179 28.1302 201.071 27.8029 194.611 28.6051C187.732 29.2462 181.081 31.0159 176.264 34.3261C171.295 37.7406 168.254 42.8529 169.137 49.6579L169.147 49.7363L169.162 49.8138C170.455 56.4531 174.862 61.6306 181.912 64.6945C188.866 67.7169 198.386 68.7006 210.256 67.2829C236.71 64.5342 251.187 52.7058 266.5 40.1939C268.074 38.9083 269.656 37.6155 271.261 36.3245C288.378 22.5569 308.603 8.45723 349.549 3.88791L349.558 3.88687L349.568 3.88575C413.922 -3.78678 448.114 21.4521 452.735 49.7391L452.736 49.748L452.737 49.7569C454.591 60.6141 451.829 71.3725 443.107 80.0327C434.315 88.7631 419.23 95.587 396.051 97.8734L396.026 97.8759L396.001 97.8788C375.525 100.315 359.512 98.0048 348.454 93.4858C337.302 88.9282 331.64 82.3557 330.708 76.4996C330.286 73.2877 330.786 69.5665 333.419 66.3404C335.862 63.3476 340.405 60.4558 348.628 58.97C350.257 64.53 353.873 70.0024 360.075 73.8765C367.124 78.2807 377.264 80.467 391.126 78.7255C401.149 77.7695 410.482 74.9817 417.141 70.5522C423.84 66.0967 428.167 59.6937 426.985 51.7511L426.983 51.7418L426.982 51.7325C425.671 43.3602 419.007 37.2516 409.084 33.6859C399.148 30.1157 385.503 28.8913 369.082 30.4575L369.06 30.4595L369.039 30.4619C335.508 34.2434 314.559 47.6703 295.163 60.6974C294.454 61.1739 293.747 61.6496 293.041 62.1241C274.476 74.6149 257.136 86.2811 230.742 89.1866ZM514.287 212.821L514.286 212.815C552.436 202.012 576.796 188.401 590.102 172.647C580.332 239.524 562.187 304.072 536.326 363.906C524.757 386.108 513.079 406.41 501.405 426.705C493.095 441.151 484.787 455.595 476.521 470.719L476.437 470.872L476.375 471.036C468.666 491.505 463.28 511.696 459.998 531.885H458.99L458.261 533.09C445.113 554.808 426.79 570.547 406.081 578.114L406.026 578.134L405.973 578.157C376.926 590.335 346.351 595.716 315.773 594.047L315.705 594.043H315.636H312.419H312.33L312.241 594.049C282.256 596.183 252.957 590.7 224.835 578.479L224.706 578.422L224.571 578.381C203.174 571.822 184.184 555.985 171.046 533.495C167.063 512.811 161.346 492.064 152.667 470.996L152.611 470.859L152.538 470.729C145.267 457.718 138.014 445.107 130.769 432.512C117.994 410.301 105.246 388.137 92.4708 363.903C83.6182 343.306 75.7367 321.15 68.333 298.64L67.0133 294.628L64.1308 297.715C60.575 301.523 57.2612 305.662 54.2002 310.443L54.1561 310.512L54.1166 310.584C40.7363 334.841 35.6864 362.295 40.7117 391.895C42.4352 407.117 46.6562 421.751 53.1262 434.88C59.5922 448.002 68.1744 459.357 78.3622 468.214C94.1284 483.902 110.074 492.77 128.259 495.138C127.965 495.275 127.671 495.412 127.378 495.549C125.36 496.493 123.353 497.431 121.394 498.312C116.007 500.735 110.826 502.806 106.027 503.83L106.003 503.835L105.979 503.84C93.0997 506.851 81.1086 506.829 69.7652 503.563C58.4172 500.296 47.5672 493.739 37.0395 483.457L37.0246 483.443L37.0094 483.428C27.1269 474.094 18.9254 462.191 12.9854 448.497C7.04798 434.809 3.5174 419.671 2.64491 404.103C1.23815 369.843 10.1136 336.214 27.458 309.792L27.4737 309.769L27.4888 309.744C36.9877 294.528 47.4338 283.306 59.0818 274.209L60.4066 273.175L59.9484 271.558C50.9814 239.906 43.85 206.735 39.2925 172.506C44.2435 178.366 51.0987 184.039 59.9733 189.517C73.2927 197.74 91.3195 205.623 114.698 213.081L114.746 213.097L114.795 213.11C166.723 227.397 233.499 237.939 315.389 237.939C395.506 237.939 462.051 228.05 514.287 212.821Z" stroke="black" stroke-width="5"/>
<path id="NG" d="M191.778 354.06L188.904 353.202L188.9 353.214L188.897 353.226L191.778 354.06ZM199.938 327.795L197.108 326.801L197.1 326.823L197.092 326.846L199.938 327.795ZM206.313 310.965L203.541 309.818L203.541 309.818L206.313 310.965ZM213.198 296.685L210.618 295.156L210.596 295.192L210.576 295.228L213.198 296.685ZM221.868 284.19L219.556 282.279L219.551 282.285L219.547 282.29L221.868 284.19ZM232.068 275.01L233.648 277.561L233.648 277.561L232.068 275.01ZM255.528 276.285L258.314 275.171L257.99 274.36L257.281 273.85L255.528 276.285ZM268.023 310.455L270.941 309.755L270.933 309.721L270.924 309.687L268.023 310.455ZM273.633 346.41L270.651 346.738L276.427 347.503L273.633 346.41ZM278.733 334.17L276.01 332.913L275.998 332.937L275.988 332.962L278.733 334.17ZM284.598 320.91L281.883 319.635L281.858 319.687L281.836 319.741L284.598 320.91ZM294.543 295.41L291.681 294.511L291.648 294.616L291.623 294.723L294.543 295.41ZM317.748 268.635L316.407 265.952L316.399 265.956L316.391 265.96L317.748 268.635ZM346.308 263.79L345.688 266.725L345.717 266.731L345.747 266.737L346.308 263.79ZM353.703 268.125L351.148 269.697L351.191 269.766L351.237 269.833L353.703 268.125ZM353.703 275.01L351.18 273.388L351.138 273.454L351.099 273.522L353.703 275.01ZM352.173 281.895L349.208 282.351L349.229 282.488L349.263 282.623L352.173 281.895ZM353.448 289.29L356.442 289.095L356.437 289.017L356.428 288.939L353.448 289.29ZM349.368 310.2L352.005 311.631L352.013 311.616L352.022 311.6L349.368 310.2ZM339.423 332.64L342.224 333.717L342.227 333.708L342.23 333.699L339.423 332.64ZM328.968 360.945L326.142 359.939L326.135 359.96L326.127 359.982L328.968 360.945ZM318.513 391.545L315.677 390.568L315.677 390.568L318.513 391.545ZM308.058 419.85L305.273 418.736L305.265 418.757L305.257 418.778L308.058 419.85ZM289.698 452.235L288.517 449.478L288.324 449.56L288.145 449.669L289.698 452.235ZM275.418 459.12L275.933 462.076L276.001 462.064L276.069 462.049L275.418 459.12ZM258.843 459.12L259.128 456.134L259.101 456.131L259.074 456.129L258.843 459.12ZM247.368 442.035L250.248 441.193L250.24 441.164L250.23 441.136L247.368 442.035ZM242.268 417.3L245.237 416.869L245.236 416.86L242.268 417.3ZM236.658 386.955L239.292 385.518L235.884 379.27L233.791 386.073L236.658 386.955ZM222.123 428.775L219.44 427.433L219.424 427.465L219.409 427.498L222.123 428.775ZM215.748 440.25L213.427 438.35L213.373 438.416L213.322 438.485L215.748 440.25ZM210.648 447.645L208.152 445.981L207.95 446.284L207.827 446.626L210.648 447.645ZM194.838 461.16L193.855 458.326L193.813 458.34L193.77 458.357L194.838 461.16ZM175.458 462.435L174.533 465.289L174.535 465.289L175.458 462.435ZM169.848 450.705L172.593 451.916L172.791 451.467L172.836 450.979L169.848 450.705ZM194.653 354.918C198.05 343.538 200.76 334.818 202.785 328.744L197.092 326.846C195.037 333.012 192.307 341.802 188.904 353.202L194.653 354.918ZM202.769 328.789C204.965 322.539 207.071 316.981 209.086 312.112L203.541 309.818C201.476 314.809 199.332 320.471 197.108 326.801L202.769 328.789ZM209.086 312.112C211.082 307.286 213.328 302.63 215.821 298.142L210.576 295.228C207.969 299.92 205.625 304.784 203.541 309.818L209.086 312.112ZM215.779 298.214C218.43 293.741 221.235 289.702 224.19 286.09L219.547 282.29C216.382 286.158 213.407 290.449 210.618 295.156L215.779 298.214ZM224.181 286.101C227.245 282.392 230.406 279.567 233.648 277.561L230.489 272.459C226.591 274.873 222.952 278.168 219.556 282.279L224.181 286.101ZM233.648 277.561C236.78 275.622 239.978 274.695 243.288 274.695V268.695C238.779 268.695 234.497 269.978 230.489 272.459L233.648 277.561ZM243.288 274.695C246.387 274.695 249.865 275.904 253.776 278.72L257.281 273.85C252.692 270.546 248.01 268.695 243.288 268.695V274.695ZM252.743 277.399C259.556 294.43 263.648 305.65 265.123 311.223L270.924 309.687C269.339 303.7 265.101 292.14 258.314 275.171L252.743 277.399ZM265.106 311.155C267.103 319.473 268.956 331.313 270.651 346.738L276.616 346.082C274.911 330.567 273.024 318.437 270.941 309.755L265.106 311.155ZM276.427 347.503C277.941 343.636 279.624 339.594 281.479 335.378L275.988 332.962C274.103 337.246 272.386 341.364 270.84 345.317L276.427 347.503ZM281.457 335.427C283.511 330.978 285.479 326.529 287.361 322.079L281.836 319.741C279.978 324.131 278.036 328.522 276.01 332.913L281.457 335.427ZM287.314 322.185C292.598 310.934 296.028 302.198 297.464 296.097L291.623 294.723C290.339 300.182 287.138 308.446 281.883 319.635L287.314 322.185ZM297.405 296.309C300.889 285.225 308.052 276.917 319.106 271.31L316.391 265.96C303.985 272.253 295.678 281.795 291.681 294.511L297.405 296.309ZM319.09 271.318C328.845 266.441 337.669 265.029 345.688 266.725L346.929 260.855C337.268 258.811 327.052 260.629 316.407 265.952L319.09 271.318ZM345.747 266.737C348.83 267.324 350.385 268.456 351.148 269.697L356.258 266.553C354.302 263.374 350.927 261.616 346.87 260.843L345.747 266.737ZM351.237 269.833C351.716 270.524 351.851 271.066 351.851 271.504C351.851 271.955 351.706 272.569 351.18 273.388L356.227 276.632C357.23 275.071 357.851 273.347 357.851 271.504C357.851 269.647 357.221 267.936 356.17 266.417L351.237 269.833ZM351.099 273.522C349.48 276.354 348.744 279.33 349.208 282.351L355.139 281.439C354.923 280.04 355.206 278.426 356.308 276.498L351.099 273.522ZM349.263 282.623C349.733 284.502 350.139 286.833 350.469 289.641L356.428 288.939C356.078 285.967 355.634 283.368 355.084 281.167L349.263 282.623ZM350.455 289.485C350.934 296.827 349.654 303.232 346.715 308.8L352.022 311.6C355.543 304.928 356.983 297.393 356.442 289.095L350.455 289.485ZM346.732 308.769C343.416 314.877 340.047 322.492 336.617 331.581L342.23 333.699C345.6 324.768 348.861 317.423 352.005 311.631L346.732 308.769ZM336.623 331.563C333.213 340.429 329.72 349.888 326.142 359.939L331.795 361.951C335.357 351.942 338.834 342.531 342.224 333.717L336.623 331.563ZM326.127 359.982C322.729 370.007 319.245 380.203 315.677 390.568L321.35 392.522C324.922 382.147 328.408 371.943 331.81 361.908L326.127 359.982ZM315.677 390.568C312.12 400.901 308.652 410.289 305.273 418.736L310.844 420.964C314.265 412.411 317.767 402.929 321.35 392.522L315.677 390.568ZM305.257 418.778C301.539 428.494 298.201 435.921 295.249 441.129C293.772 443.734 292.431 445.712 291.235 447.124C290.009 448.57 289.093 449.231 288.517 449.478L290.88 454.992C292.684 454.219 294.318 452.766 295.812 451.003C297.336 449.206 298.885 446.881 300.468 444.088C303.636 438.501 307.098 430.756 310.86 420.922L305.257 418.778ZM288.145 449.669C281.681 453.581 277.296 455.629 274.768 456.191L276.069 462.049C279.661 461.251 284.796 458.709 291.252 454.801L288.145 449.669ZM274.904 456.164C271.39 456.776 266.179 456.805 259.128 456.134L258.559 462.106C265.788 462.795 271.627 462.824 275.933 462.076L274.904 456.164ZM259.074 456.129C258.189 456.061 256.835 455.43 255.15 452.921C253.486 450.444 251.827 446.594 250.248 441.193L244.489 442.877C246.14 448.526 248.008 453.049 250.169 456.266C252.309 459.453 255.078 461.839 258.613 462.111L259.074 456.129ZM250.23 441.136C248.431 435.408 246.758 427.345 245.237 416.869L239.3 417.731C240.839 428.335 242.566 436.762 244.506 442.934L250.23 441.136ZM245.236 416.86C243.874 407.668 242.721 400.508 241.776 395.398C241.304 392.847 240.879 390.774 240.499 389.2C240.152 387.759 239.767 386.389 239.292 385.518L234.025 388.392C234.008 388.361 234.079 388.497 234.218 388.94C234.345 389.345 234.495 389.894 234.666 390.607C235.01 392.03 235.413 393.983 235.876 396.489C236.801 401.494 237.943 408.572 239.301 417.74L245.236 416.86ZM233.791 386.073C226.969 408.244 222.196 421.921 219.44 427.433L224.807 430.117C227.831 424.069 232.748 409.866 239.526 387.837L233.791 386.073ZM219.409 427.498C216.677 433.304 214.691 436.805 213.427 438.35L218.07 442.15C219.866 439.955 222.13 435.806 224.838 430.052L219.409 427.498ZM213.322 438.485C211.929 440.402 210.203 442.904 208.152 445.981L213.145 449.309C215.173 446.266 216.848 443.838 218.175 442.015L213.322 438.485ZM207.827 446.626C206.024 451.618 201.653 455.62 193.855 458.326L195.822 463.994C204.684 460.92 210.853 455.912 213.47 448.664L207.827 446.626ZM193.77 458.357C187.101 460.897 181.359 461.191 176.382 459.581L174.535 465.289C181.118 467.419 188.296 466.863 195.906 463.963L193.77 458.357ZM176.384 459.581C173.614 458.683 172.475 457.578 172.045 456.678C171.634 455.82 171.506 454.381 172.593 451.916L167.104 449.494C165.641 452.809 165.173 456.215 166.632 459.267C168.072 462.277 171.013 464.147 174.533 465.289L176.384 459.581ZM172.836 450.979C174.678 430.887 181.915 398.909 194.66 354.894L188.897 353.226C176.142 397.271 168.759 429.723 166.861 450.431L172.836 450.979ZM436.294 260.475L435.701 257.534L435.61 257.552L435.521 257.576L436.294 260.475ZM493.414 269.655L495.31 267.33L495.305 267.327L493.414 269.655ZM506.164 292.605L503.224 293.203L503.229 293.227L503.234 293.251L506.164 292.605ZM502.849 326.265L500.023 325.258L500.008 325.3L499.994 325.342L502.849 326.265ZM493.159 339.27L491.56 336.731L491.56 336.731L493.159 339.27ZM478.879 344.37L479.092 347.362L479.14 347.359L479.187 347.354L478.879 344.37ZM465.874 342.585L464.677 345.336L464.729 345.358L464.78 345.379L465.874 342.585ZM459.499 335.445L462.48 335.114L462.428 334.644L462.234 334.214L459.499 335.445ZM457.204 330.345L459.939 329.114L459.837 328.887L459.7 328.681L457.204 330.345ZM436.039 328.05L437.272 330.785L437.279 330.781L437.287 330.778L436.039 328.05ZM410.029 348.45L407.793 346.45L407.788 346.456L407.782 346.461L410.029 348.45ZM392.179 376.5L395.025 377.449L395.028 377.44L395.03 377.431L392.179 376.5ZM387.589 394.605L390.584 394.763L390.589 394.684V394.605H387.589ZM394.474 411.945L392.317 414.03L392.559 414.28L392.851 414.469L394.474 411.945ZM415.894 418.32L416.036 421.317L416.072 421.315L416.107 421.312L415.894 418.32ZM435.019 413.475L436.327 416.174L436.36 416.159L436.392 416.142L435.019 413.475ZM448.789 403.785L450.91 405.906L450.91 405.906L448.789 403.785ZM454.144 396.135L451.46 394.793L451.144 395.427V396.135H454.144ZM456.949 390.015L459.795 390.964L461.111 387.015H456.949V390.015ZM457.459 390.015V393.015H457.707L457.952 392.974L457.459 390.015ZM458.224 390.015V393.015H458.71L459.172 392.861L458.224 390.015ZM458.989 390.27L459.937 387.424L459.714 387.35L459.482 387.311L458.989 390.27ZM460.519 390.78L462.523 393.012L466.361 389.565L461.467 387.934L460.519 390.78ZM436.294 395.37L434.729 397.93L434.773 397.957L434.817 397.982L436.294 395.37ZM428.134 389.505L426.092 391.703L426.136 391.744L426.181 391.783L428.134 389.505ZM421.504 386.445L420.067 389.079L420.857 389.509L421.753 389.435L421.504 386.445ZM418.954 374.46L416.128 373.451L416.122 373.469L416.116 373.487L418.954 374.46ZM423.544 367.83L425.578 370.034L425.585 370.028L423.544 367.83ZM432.469 363.24L433.163 366.158L433.416 366.098L433.654 365.996L432.469 363.24ZM479.644 358.14L478.86 361.036L478.87 361.039L478.88 361.041L479.644 358.14ZM492.904 368.595L490.169 369.83L490.194 369.884L490.22 369.937L492.904 368.595ZM496.219 385.935L499.214 386.093L496.219 385.935ZM491.884 405.57L489.084 404.493L489.071 404.525L489.06 404.556L491.884 405.57ZM483.979 421.635L486.391 423.418L486.409 423.394L486.427 423.369L483.979 421.635ZM471.739 435.66L469.584 433.573L469.567 433.59L469.55 433.608L471.739 435.66ZM452.359 451.47L453.987 453.99L453.997 453.983L452.359 451.47ZM390.649 469.32L390.718 466.321L390.708 466.321L390.697 466.32L390.649 469.32ZM334.294 430.305L337.219 429.642L337.218 429.635L334.294 430.305ZM331.744 402.765L328.749 402.593L328.745 402.654L328.744 402.715L331.744 402.765ZM358.264 319.89L355.72 318.3L355.717 318.305L358.264 319.89ZM389.119 283.68L387.117 281.445L387.101 281.459L387.086 281.473L389.119 283.68ZM416.659 266.85L417.732 269.651L417.76 269.641L417.788 269.629L416.659 266.85ZM436.886 263.416C460.876 258.585 478.875 261.708 491.522 271.983L495.305 267.327C480.752 255.502 460.671 252.505 435.701 257.534L436.886 263.416ZM491.517 271.98C497.327 276.719 501.289 283.692 503.224 293.203L509.103 292.007C506.958 281.458 502.421 273.131 495.31 267.33L491.517 271.98ZM503.234 293.251C505.293 302.596 504.306 313.231 500.023 325.258L505.675 327.272C510.231 314.479 511.454 302.674 509.093 291.959L503.234 293.251ZM499.994 325.342C498.313 330.538 495.483 334.261 491.56 336.731L494.757 341.809C500.014 338.499 503.644 333.552 505.703 327.188L499.994 325.342ZM491.56 336.731C487.323 339.399 482.999 340.928 478.57 341.386L479.187 347.354C484.618 346.792 489.814 344.921 494.757 341.809L491.56 336.731ZM478.665 341.378C474.289 341.69 470.408 341.138 466.967 339.791L464.78 345.379C469.159 347.092 473.948 347.73 479.092 347.362L478.665 341.378ZM467.07 339.834C463.719 338.377 462.658 336.712 462.48 335.114L456.517 335.776C457.019 340.298 460.208 343.393 464.677 345.336L467.07 339.834ZM462.234 334.214L459.939 329.114L454.468 331.576L456.763 336.676L462.234 334.214ZM459.7 328.681C457.187 324.912 453.624 322.681 449.176 322.199C444.892 321.734 440.047 322.916 434.79 325.322L437.287 330.778C442.06 328.594 445.758 327.863 448.529 328.164C451.136 328.446 453.14 329.658 454.707 332.009L459.7 328.681ZM434.805 325.315C425.641 329.448 416.646 336.555 407.793 346.45L412.264 350.45C420.751 340.965 429.096 334.472 437.272 330.785L434.805 325.315ZM407.782 346.461C398.471 356.98 392.227 366.688 389.327 375.569L395.03 377.431C397.571 369.652 403.227 360.66 412.275 350.439L407.782 346.461ZM389.333 375.551C387.791 380.177 386.618 384.058 385.828 387.174C385.055 390.222 384.589 392.761 384.589 394.605H390.589C390.589 393.559 390.887 391.636 391.644 388.648C392.384 385.73 393.507 382.003 395.025 377.449L389.333 375.551ZM384.593 394.447C384.204 401.824 386.87 408.396 392.317 414.03L396.631 409.86C392.217 405.294 390.293 400.306 390.584 394.763L384.593 394.447ZM392.851 414.469C400.415 419.331 408.163 421.692 416.036 421.317L415.751 415.323C409.344 415.628 402.812 413.739 396.096 409.421L392.851 414.469ZM416.107 421.312C423.572 420.779 430.327 419.084 436.327 416.174L433.71 410.776C428.49 413.306 422.495 414.841 415.68 415.328L416.107 421.312ZM436.392 416.142C442.212 413.144 447.074 409.743 450.91 405.906L446.667 401.664C443.364 404.967 439.045 408.026 433.645 410.808L436.392 416.142ZM450.91 405.906C452.753 404.064 454.228 402.394 455.263 400.915C456.207 399.566 457.144 397.887 457.144 396.135H451.144C451.144 395.913 451.187 396.274 450.347 397.475C449.597 398.546 448.395 399.936 446.667 401.664L450.91 405.906ZM456.827 397.477C457.337 396.457 457.847 395.437 458.357 394.417L452.99 391.733C452.48 392.753 451.97 393.773 451.46 394.793L456.827 397.477ZM458.357 394.417C458.927 393.277 459.407 392.126 459.795 390.964L454.103 389.066C453.81 389.944 453.441 390.833 452.99 391.733L458.357 394.417ZM456.949 387.015C456.947 387.015 456.946 387.015 456.945 387.015C456.943 387.015 456.942 387.015 456.941 387.015C456.939 387.015 456.938 387.015 456.937 387.015C456.935 387.015 456.934 387.015 456.933 387.015C456.932 387.015 456.93 387.015 456.929 387.015C456.928 387.015 456.926 387.015 456.925 387.015C456.924 387.015 456.922 387.015 456.921 387.015C456.92 387.015 456.919 387.015 456.917 387.015C456.916 387.015 456.915 387.015 456.914 387.015C456.912 387.015 456.911 387.015 456.91 387.015C456.908 387.015 456.907 387.015 456.906 387.015C456.905 387.015 456.903 387.015 456.902 387.015C456.901 387.015 456.9 387.015 456.898 387.015C456.897 387.015 456.896 387.015 456.895 387.015C456.893 387.015 456.892 387.015 456.891 387.015C456.89 387.015 456.889 387.015 456.887 387.015C456.886 387.015 456.885 387.015 456.884 387.015C456.882 387.015 456.881 387.015 456.88 387.015C456.879 387.015 456.878 387.015 456.876 387.015C456.875 387.015 456.874 387.015 456.873 387.015C456.872 387.015 456.87 387.015 456.869 387.015C456.868 387.015 456.867 387.015 456.866 387.015C456.864 387.015 456.863 387.015 456.862 387.015C456.861 387.015 456.86 387.015 456.859 387.015C456.857 387.015 456.856 387.015 456.855 387.015C456.854 387.015 456.853 387.015 456.852 387.015C456.85 387.015 456.849 387.015 456.848 387.015C456.847 387.015 456.846 387.015 456.845 387.015C456.844 387.015 456.842 387.015 456.841 387.015C456.84 387.015 456.839 387.015 456.838 387.015C456.837 387.015 456.836 387.015 456.834 387.015C456.833 387.015 456.832 387.015 456.831 387.015C456.83 387.015 456.829 387.015 456.828 387.015C456.827 387.015 456.825 387.015 456.824 387.015C456.823 387.015 456.822 387.015 456.821 387.015C456.82 387.015 456.819 387.015 456.818 387.015C456.817 387.015 456.816 387.015 456.814 387.015C456.813 387.015 456.812 387.015 456.811 387.015C456.81 387.015 456.809 387.015 456.808 387.015C456.807 387.015 456.806 387.015 456.805 387.015C456.804 387.015 456.803 387.015 456.802 387.015C456.801 387.015 456.799 387.015 456.798 387.015C456.797 387.015 456.796 387.015 456.795 387.015C456.794 387.015 456.793 387.015 456.792 387.015C456.791 387.015 456.79 387.015 456.789 387.015C456.788 387.015 456.787 387.015 456.786 387.015C456.785 387.015 456.784 387.015 456.783 387.015C456.782 387.015 456.781 387.015 456.78 387.015C456.779 387.015 456.778 387.015 456.777 387.015C456.776 387.015 456.775 387.015 456.774 387.015C456.773 387.015 456.772 387.015 456.771 387.015C456.77 387.015 456.769 387.015 456.768 387.015C456.767 387.015 456.766 387.015 456.765 387.015C456.764 387.015 456.763 387.015 456.762 387.015C456.761 387.015 456.76 387.015 456.759 387.015C456.758 387.015 456.757 387.015 456.756 387.015C456.755 387.015 456.754 387.015 456.753 387.015C456.752 387.015 456.751 387.015 456.75 387.015C456.749 387.015 456.748 387.015 456.747 387.015C456.746 387.015 456.745 387.015 456.745 387.015C456.744 387.015 456.743 387.015 456.742 387.015C456.741 387.015 456.74 387.015 456.739 387.015C456.738 387.015 456.737 387.015 456.736 387.015C456.735 387.015 456.734 387.015 456.733 387.015C456.733 387.015 456.732 387.015 456.731 387.015C456.73 387.015 456.729 387.015 456.728 387.015C456.727 387.015 456.726 387.015 456.725 387.015C456.724 387.015 456.724 387.015 456.723 387.015C456.722 387.015 456.721 387.015 456.72 387.015C456.719 387.015 456.718 387.015 456.717 387.015C456.716 387.015 456.716 387.015 456.715 387.015C456.714 387.015 456.713 387.015 456.712 387.015C456.711 387.015 456.71 387.015 456.71 387.015C456.709 387.015 456.708 387.015 456.707 387.015C456.706 387.015 456.705 387.015 456.704 387.015C456.704 387.015 456.703 387.015 456.702 387.015C456.701 387.015 456.7 387.015 456.699 387.015C456.699 387.015 456.698 387.015 456.697 387.015C456.696 387.015 456.695 387.015 456.695 387.015C456.694 387.015 456.693 387.015 456.692 387.015C456.691 387.015 456.69 387.015 456.69 387.015C456.689 387.015 456.688 387.015 456.687 387.015C456.686 387.015 456.686 387.015 456.685 387.015C456.684 387.015 456.683 387.015 456.683 387.015C456.682 387.015 456.681 387.015 456.68 387.015C456.679 387.015 456.679 387.015 456.678 387.015C456.677 387.015 456.676 387.015 456.676 387.015C456.675 387.015 456.674 387.015 456.673 387.015C456.673 387.015 456.672 387.015 456.671 387.015C456.67 387.015 456.67 387.015 456.669 387.015C456.668 387.015 456.667 387.015 456.667 387.015C456.666 387.015 456.665 387.015 456.664 387.015C456.664 387.015 456.663 387.015 456.662 387.015C456.661 387.015 456.661 387.015 456.66 387.015C456.659 387.015 456.659 387.015 456.658 387.015C456.657 387.015 456.656 387.015 456.656 387.015C456.655 387.015 456.654 387.015 456.654 387.015C456.653 387.015 456.652 387.015 456.652 387.015C456.651 387.015 456.65 387.015 456.649 387.015C456.649 387.015 456.648 387.015 456.647 387.015C456.647 387.015 456.646 387.015 456.645 387.015C456.645 387.015 456.644 387.015 456.643 387.015C456.643 387.015 456.642 387.015 456.641 387.015C456.641 387.015 456.64 387.015 456.639 387.015C456.639 387.015 456.638 387.015 456.637 387.015C456.637 387.015 456.636 387.015 456.636 387.015C456.635 387.015 456.634 387.015 456.634 387.015C456.633 387.015 456.632 387.015 456.632 387.015C456.631 387.015 456.63 387.015 456.63 387.015C456.629 387.015 456.629 387.015 456.628 387.015C456.627 387.015 456.627 387.015 456.626 387.015C456.626 387.015 456.625 387.015 456.624 387.015C456.624 387.015 456.623 387.015 456.623 387.015C456.622 387.015 456.621 387.015 456.621 387.015C456.62 387.015 456.62 387.015 456.619 387.015C456.618 387.015 456.618 387.015 456.617 387.015C456.617 387.015 456.616 387.015 456.616 387.015C456.615 387.015 456.614 387.015 456.614 387.015C456.613 387.015 456.613 387.015 456.612 387.015C456.612 387.015 456.611 387.015 456.611 387.015C456.61 387.015 456.609 387.015 456.609 387.015C456.608 387.015 456.608 387.015 456.607 387.015C456.607 387.015 456.606 387.015 456.606 387.015C456.605 387.015 456.605 387.015 456.604 387.015C456.604 387.015 456.603 387.015 456.603 387.015C456.602 387.015 456.602 387.015 456.601 387.015C456.6 387.015 456.6 387.015 456.599 387.015C456.599 387.015 456.598 387.015 456.598 387.015C456.597 387.015 456.597 387.015 456.596 387.015C456.596 387.015 456.596 387.015 456.595 387.015C456.595 387.015 456.594 387.015 456.594 387.015C456.593 387.015 456.593 387.015 456.592 387.015C456.592 387.015 456.591 387.015 456.591 387.015C456.59 387.015 456.59 387.015 456.589 387.015C456.589 387.015 456.588 387.015 456.588 387.015C456.588 387.015 456.587 387.015 456.587 387.015C456.586 387.015 456.586 387.015 456.585 387.015C456.585 387.015 456.584 387.015 456.584 387.015C456.584 387.015 456.583 387.015 456.583 387.015C456.582 387.015 456.582 387.015 456.581 387.015C456.581 387.015 456.581 387.015 456.58 387.015C456.58 387.015 456.579 387.015 456.579 387.015C456.579 387.015 456.578 387.015 456.578 387.015C456.577 387.015 456.577 387.015 456.577 387.015C456.576 387.015 456.576 387.015 456.575 387.015C456.575 387.015 456.575 387.015 456.574 387.015C456.574 387.015 456.573 387.015 456.573 387.015C456.573 387.015 456.572 387.015 456.572 387.015C456.572 387.015 456.571 387.015 456.571 387.015C456.571 387.015 456.57 387.015 456.57 387.015C456.569 387.015 456.569 387.015 456.569 387.015C456.568 387.015 456.568 387.015 456.568 387.015C456.567 387.015 456.567 387.015 456.567 387.015C456.566 387.015 456.566 387.015 456.566 387.015C456.565 387.015 456.565 387.015 456.565 387.015C456.564 387.015 456.564 387.015 456.564 387.015C456.563 387.015 456.563 387.015 456.563 387.015C456.563 387.015 456.562 387.015 456.562 387.015C456.562 387.015 456.561 387.015 456.561 387.015C456.561 387.015 456.56 387.015 456.56 387.015C456.56 387.015 456.56 387.015 456.559 387.015C456.559 387.015 456.559 387.015 456.558 387.015C456.558 387.015 456.558 387.015 456.558 387.015C456.557 387.015 456.557 387.015 456.557 387.015C456.557 387.015 456.556 387.015 456.556 387.015C456.556 387.015 456.555 387.015 456.555 387.015C456.555 387.015 456.555 387.015 456.554 387.015C456.554 387.015 456.554 387.015 456.554 387.015C456.554 387.015 456.553 387.015 456.553 387.015C456.553 387.015 456.553 387.015 456.552 387.015C456.552 387.015 456.552 387.015 456.552 387.015C456.551 387.015 456.551 387.015 456.551 387.015C456.551 387.015 456.551 387.015 456.55 387.015C456.55 387.015 456.55 387.015 456.55 387.015C456.55 387.015 456.549 387.015 456.549 387.015C456.549 387.015 456.549 387.015 456.549 387.015C456.548 387.015 456.548 387.015 456.548 387.015C456.548 387.015 456.548 387.015 456.548 387.015C456.547 387.015 456.547 387.015 456.547 387.015C456.547 387.015 456.547 387.015 456.547 387.015C456.546 387.015 456.546 387.015 456.546 387.015C456.546 387.015 456.546 387.015 456.546 387.015C456.546 387.015 456.545 387.015 456.545 387.015C456.545 387.015 456.545 387.015 456.545 387.015C456.545 387.015 456.545 387.015 456.544 387.015C456.544 387.015 456.544 387.015 456.544 387.015C456.544 387.015 456.544 387.015 456.544 387.015C456.544 387.015 456.543 387.015 456.543 387.015C456.543 387.015 456.543 387.015 456.543 387.015C456.543 387.015 456.543 387.015 456.543 387.015C456.543 387.015 456.543 387.015 456.542 387.015C456.542 387.015 456.542 387.015 456.542 387.015C456.542 387.015 456.542 387.015 456.542 387.015C456.542 387.015 456.542 387.015 456.542 387.015C456.542 387.015 456.542 387.015 456.542 387.015C456.541 387.015 456.541 387.015 456.541 387.015C456.541 387.015 456.541 387.015 456.541 387.015C456.541 387.015 456.541 387.015 456.541 387.015C456.541 387.015 456.541 387.015 456.541 387.015C456.541 387.015 456.541 387.015 456.541 387.015C456.541 387.015 456.541 387.015 456.541 387.015C456.541 387.015 456.541 387.015 456.541 387.015C456.541 387.015 456.541 387.015 456.541 387.015C456.541 387.015 456.541 387.015 456.541 387.015C456.541 387.015 456.541 390.015 456.541 393.015C456.541 393.015 456.541 393.015 456.541 393.015C456.541 393.015 456.541 393.015 456.541 393.015C456.541 393.015 456.541 393.015 456.541 393.015C456.541 393.015 456.541 393.015 456.541 393.015C456.541 393.015 456.541 393.015 456.541 393.015C456.541 393.015 456.541 393.015 456.541 393.015C456.541 393.015 456.541 393.015 456.541 393.015C456.541 393.015 456.541 393.015 456.541 393.015C456.541 393.015 456.541 393.015 456.541 393.015C456.541 393.015 456.542 393.015 456.542 393.015C456.542 393.015 456.542 393.015 456.542 393.015C456.542 393.015 456.542 393.015 456.542 393.015C456.542 393.015 456.542 393.015 456.542 393.015C456.542 393.015 456.542 393.015 456.543 393.015C456.543 393.015 456.543 393.015 456.543 393.015C456.543 393.015 456.543 393.015 456.543 393.015C456.543 393.015 456.543 393.015 456.543 393.015C456.544 393.015 456.544 393.015 456.544 393.015C456.544 393.015 456.544 393.015 456.544 393.015C456.544 393.015 456.544 393.015 456.545 393.015C456.545 393.015 456.545 393.015 456.545 393.015C456.545 393.015 456.545 393.015 456.545 393.015C456.546 393.015 456.546 393.015 456.546 393.015C456.546 393.015 456.546 393.015 456.546 393.015C456.546 393.015 456.547 393.015 456.547 393.015C456.547 393.015 456.547 393.015 456.547 393.015C456.547 393.015 456.548 393.015 456.548 393.015C456.548 393.015 456.548 393.015 456.548 393.015C456.549 393.015 456.549 393.015 456.549 393.015C456.549 393.015 456.549 393.015 456.549 393.015C456.55 393.015 456.55 393.015 456.55 393.015C456.55 393.015 456.55 393.015 456.551 393.015C456.551 393.015 456.551 393.015 456.551 393.015C456.552 393.015 456.552 393.015 456.552 393.015C456.552 393.015 456.552 393.015 456.553 393.015C456.553 393.015 456.553 393.015 456.553 393.015C456.554 393.015 456.554 393.015 456.554 393.015C456.554 393.015 456.555 393.015 456.555 393.015C456.555 393.015 456.555 393.015 456.556 393.015C456.556 393.015 456.556 393.015 456.556 393.015C456.557 393.015 456.557 393.015 456.557 393.015C456.557 393.015 456.558 393.015 456.558 393.015C456.558 393.015 456.558 393.015 456.559 393.015C456.559 393.015 456.559 393.015 456.56 393.015C456.56 393.015 456.56 393.015 456.56 393.015C456.561 393.015 456.561 393.015 456.561 393.015C456.562 393.015 456.562 393.015 456.562 393.015C456.563 393.015 456.563 393.015 456.563 393.015C456.564 393.015 456.564 393.015 456.564 393.015C456.564 393.015 456.565 393.015 456.565 393.015C456.565 393.015 456.566 393.015 456.566 393.015C456.566 393.015 456.567 393.015 456.567 393.015C456.567 393.015 456.568 393.015 456.568 393.015C456.568 393.015 456.569 393.015 456.569 393.015C456.57 393.015 456.57 393.015 456.57 393.015C456.571 393.015 456.571 393.015 456.571 393.015C456.572 393.015 456.572 393.015 456.572 393.015C456.573 393.015 456.573 393.015 456.574 393.015C456.574 393.015 456.574 393.015 456.575 393.015C456.575 393.015 456.575 393.015 456.576 393.015C456.576 393.015 456.577 393.015 456.577 393.015C456.577 393.015 456.578 393.015 456.578 393.015C456.579 393.015 456.579 393.015 456.579 393.015C456.58 393.015 456.58 393.015 456.581 393.015C456.581 393.015 456.582 393.015 456.582 393.015C456.582 393.015 456.583 393.015 456.583 393.015C456.584 393.015 456.584 393.015 456.585 393.015C456.585 393.015 456.585 393.015 456.586 393.015C456.586 393.015 456.587 393.015 456.587 393.015C456.588 393.015 456.588 393.015 456.589 393.015C456.589 393.015 456.589 393.015 456.59 393.015C456.59 393.015 456.591 393.015 456.591 393.015C456.592 393.015 456.592 393.015 456.593 393.015C456.593 393.015 456.594 393.015 456.594 393.015C456.595 393.015 456.595 393.015 456.596 393.015C456.596 393.015 456.597 393.015 456.597 393.015C456.598 393.015 456.598 393.015 456.599 393.015C456.599 393.015 456.6 393.015 456.6 393.015C456.601 393.015 456.601 393.015 456.602 393.015C456.602 393.015 456.603 393.015 456.603 393.015C456.604 393.015 456.604 393.015 456.605 393.015C456.605 393.015 456.606 393.015 456.606 393.015C456.607 393.015 456.607 393.015 456.608 393.015C456.608 393.015 456.609 393.015 456.61 393.015C456.61 393.015 456.611 393.015 456.611 393.015C456.612 393.015 456.612 393.015 456.613 393.015C456.613 393.015 456.614 393.015 456.615 393.015C456.615 393.015 456.616 393.015 456.616 393.015C456.617 393.015 456.617 393.015 456.618 393.015C456.619 393.015 456.619 393.015 456.62 393.015C456.62 393.015 456.621 393.015 456.622 393.015C456.622 393.015 456.623 393.015 456.623 393.015C456.624 393.015 456.624 393.015 456.625 393.015C456.626 393.015 456.626 393.015 456.627 393.015C456.628 393.015 456.628 393.015 456.629 393.015C456.629 393.015 456.63 393.015 456.631 393.015C456.631 393.015 456.632 393.015 456.633 393.015C456.633 393.015 456.634 393.015 456.634 393.015C456.635 393.015 456.636 393.015 456.636 393.015C456.637 393.015 456.638 393.015 456.638 393.015C456.639 393.015 456.64 393.015 456.64 393.015C456.641 393.015 456.642 393.015 456.642 393.015C456.643 393.015 456.644 393.015 456.644 393.015C456.645 393.015 456.646 393.015 456.646 393.015C456.647 393.015 456.648 393.015 456.648 393.015C456.649 393.015 456.65 393.015 456.65 393.015C456.651 393.015 456.652 393.015 456.652 393.015C456.653 393.015 456.654 393.015 456.654 393.015C456.655 393.015 456.656 393.015 456.657 393.015C456.657 393.015 456.658 393.015 456.659 393.015C456.659 393.015 456.66 393.015 456.661 393.015C456.662 393.015 456.662 393.015 456.663 393.015C456.664 393.015 456.665 393.015 456.665 393.015C456.666 393.015 456.667 393.015 456.667 393.015C456.668 393.015 456.669 393.015 456.67 393.015C456.67 393.015 456.671 393.015 456.672 393.015C456.673 393.015 456.673 393.015 456.674 393.015C456.675 393.015 456.676 393.015 456.677 393.015C456.677 393.015 456.678 393.015 456.679 393.015C456.68 393.015 456.68 393.015 456.681 393.015C456.682 393.015 456.683 393.015 456.683 393.015C456.684 393.015 456.685 393.015 456.686 393.015C456.687 393.015 456.687 393.015 456.688 393.015C456.689 393.015 456.69 393.015 456.691 393.015C456.691 393.015 456.692 393.015 456.693 393.015C456.694 393.015 456.695 393.015 456.696 393.015C456.696 393.015 456.697 393.015 456.698 393.015C456.699 393.015 456.7 393.015 456.7 393.015C456.701 393.015 456.702 393.015 456.703 393.015C456.704 393.015 456.705 393.015 456.706 393.015C456.706 393.015 456.707 393.015 456.708 393.015C456.709 393.015 456.71 393.015 456.711 393.015C456.711 393.015 456.712 393.015 456.713 393.015C456.714 393.015 456.715 393.015 456.716 393.015C456.717 393.015 456.718 393.015 456.718 393.015C456.719 393.015 456.72 393.015 456.721 393.015C456.722 393.015 456.723 393.015 456.724 393.015C456.725 393.015 456.725 393.015 456.726 393.015C456.727 393.015 456.728 393.015 456.729 393.015C456.73 393.015 456.731 393.015 456.732 393.015C456.733 393.015 456.734 393.015 456.735 393.015C456.735 393.015 456.736 393.015 456.737 393.015C456.738 393.015 456.739 393.015 456.74 393.015C456.741 393.015 456.742 393.015 456.743 393.015C456.744 393.015 456.745 393.015 456.746 393.015C456.747 393.015 456.748 393.015 456.749 393.015C456.749 393.015 456.75 393.015 456.751 393.015C456.752 393.015 456.753 393.015 456.754 393.015C456.755 393.015 456.756 393.015 456.757 393.015C456.758 393.015 456.759 393.015 456.76 393.015C456.761 393.015 456.762 393.015 456.763 393.015C456.764 393.015 456.765 393.015 456.766 393.015C456.767 393.015 456.768 393.015 456.769 393.015C456.77 393.015 456.771 393.015 456.772 393.015C456.773 393.015 456.774 393.015 456.775 393.015C456.776 393.015 456.777 393.015 456.778 393.015C456.779 393.015 456.78 393.015 456.781 393.015C456.782 393.015 456.783 393.015 456.784 393.015C456.785 393.015 456.786 393.015 456.787 393.015C456.788 393.015 456.789 393.015 456.79 393.015C456.791 393.015 456.792 393.015 456.793 393.015C456.794 393.015 456.795 393.015 456.797 393.015C456.798 393.015 456.799 393.015 456.8 393.015C456.801 393.015 456.802 393.015 456.803 393.015C456.804 393.015 456.805 393.015 456.806 393.015C456.807 393.015 456.808 393.015 456.809 393.015C456.81 393.015 456.811 393.015 456.813 393.015C456.814 393.015 456.815 393.015 456.816 393.015C456.817 393.015 456.818 393.015 456.819 393.015C456.82 393.015 456.821 393.015 456.822 393.015C456.823 393.015 456.825 393.015 456.826 393.015C456.827 393.015 456.828 393.015 456.829 393.015C456.83 393.015 456.831 393.015 456.832 393.015C456.834 393.015 456.835 393.015 456.836 393.015C456.837 393.015 456.838 393.015 456.839 393.015C456.84 393.015 456.841 393.015 456.843 393.015C456.844 393.015 456.845 393.015 456.846 393.015C456.847 393.015 456.848 393.015 456.849 393.015C456.851 393.015 456.852 393.015 456.853 393.015C456.854 393.015 456.855 393.015 456.856 393.015C456.858 393.015 456.859 393.015 456.86 393.015C456.861 393.015 456.862 393.015 456.864 393.015C456.865 393.015 456.866 393.015 456.867 393.015C456.868 393.015 456.869 393.015 456.871 393.015C456.872 393.015 456.873 393.015 456.874 393.015C456.875 393.015 456.877 393.015 456.878 393.015C456.879 393.015 456.88 393.015 456.881 393.015C456.883 393.015 456.884 393.015 456.885 393.015C456.886 393.015 456.888 393.015 456.889 393.015C456.89 393.015 456.891 393.015 456.893 393.015C456.894 393.015 456.895 393.015 456.896 393.015C456.897 393.015 456.899 393.015 456.9 393.015C456.901 393.015 456.902 393.015 456.904 393.015C456.905 393.015 456.906 393.015 456.907 393.015C456.909 393.015 456.91 393.015 456.911 393.015C456.913 393.015 456.914 393.015 456.915 393.015C456.916 393.015 456.918 393.015 456.919 393.015C456.92 393.015 456.921 393.015 456.923 393.015C456.924 393.015 456.925 393.015 456.927 393.015C456.928 393.015 456.929 393.015 456.93 393.015C456.932 393.015 456.933 393.015 456.934 393.015C456.936 393.015 456.937 393.015 456.938 393.015C456.94 393.015 456.941 393.015 456.942 393.015C456.944 393.015 456.945 393.015 456.946 393.015C456.948 393.015 456.949 393.015 456.95 393.015C456.952 393.015 456.953 393.015 456.954 393.015C456.956 393.015 456.957 393.015 456.958 393.015C456.96 393.015 456.961 393.015 456.962 393.015C456.964 393.015 456.965 393.015 456.966 393.015C456.968 393.015 456.969 393.015 456.97 393.015C456.972 393.015 456.973 393.015 456.974 393.015C456.976 393.015 456.977 393.015 456.979 393.015C456.98 393.015 456.981 393.015 456.983 393.015C456.984 393.015 456.986 393.015 456.987 393.015C456.988 393.015 456.99 393.015 456.991 393.015C456.992 393.015 456.994 393.015 456.995 393.015C456.997 393.015 456.998 393.015 457 393.015C457.001 393.015 457.002 393.015 457.004 393.015C457.005 393.015 457.007 393.015 457.008 393.015C457.009 393.015 457.011 393.015 457.012 393.015C457.014 393.015 457.015 393.015 457.017 393.015C457.018 393.015 457.019 393.015 457.021 393.015C457.022 393.015 457.024 393.015 457.025 393.015C457.027 393.015 457.028 393.015 457.03 393.015C457.031 393.015 457.032 393.015 457.034 393.015C457.035 393.015 457.037 393.015 457.038 393.015C457.04 393.015 457.041 393.015 457.043 393.015C457.044 393.015 457.046 393.015 457.047 393.015C457.049 393.015 457.05 393.015 457.052 393.015C457.053 393.015 457.055 393.015 457.056 393.015C457.058 393.015 457.059 393.015 457.061 393.015C457.062 393.015 457.064 393.015 457.065 393.015C457.067 393.015 457.068 393.015 457.07 393.015C457.071 393.015 457.073 393.015 457.074 393.015C457.076 393.015 457.077 393.015 457.079 393.015C457.08 393.015 457.082 393.015 457.083 393.015C457.085 393.015 457.086 393.015 457.088 393.015C457.089 393.015 457.091 393.015 457.093 393.015C457.094 393.015 457.096 393.015 457.097 393.015C457.099 393.015 457.1 393.015 457.102 393.015C457.103 393.015 457.105 393.015 457.107 393.015C457.108 393.015 457.11 393.015 457.111 393.015C457.113 393.015 457.114 393.015 457.116 393.015C457.118 393.015 457.119 393.015 457.121 393.015C457.122 393.015 457.124 393.015 457.125 393.015C457.127 393.015 457.129 393.015 457.13 393.015C457.132 393.015 457.133 393.015 457.135 393.015C457.137 393.015 457.138 393.015 457.14 393.015C457.141 393.015 457.143 393.015 457.145 393.015C457.146 393.015 457.148 393.015 457.15 393.015C457.151 393.015 457.153 393.015 457.154 393.015C457.156 393.015 457.158 393.015 457.159 393.015C457.161 393.015 457.163 393.015 457.164 393.015C457.166 393.015 457.168 393.015 457.169 393.015C457.171 393.015 457.172 393.015 457.174 393.015C457.176 393.015 457.177 393.015 457.179 393.015C457.181 393.015 457.182 393.015 457.184 393.015C457.186 393.015 457.187 393.015 457.189 393.015C457.191 393.015 457.192 393.015 457.194 393.015C457.196 393.015 457.198 393.015 457.199 393.015C457.201 393.015 457.203 393.015 457.204 393.015C457.206 393.015 457.208 393.015 457.209 393.015C457.211 393.015 457.213 393.015 457.214 393.015C457.216 393.015 457.218 393.015 457.22 393.015C457.221 393.015 457.223 393.015 457.225 393.015C457.226 393.015 457.228 393.015 457.23 393.015C457.232 393.015 457.233 393.015 457.235 393.015C457.237 393.015 457.239 393.015 457.24 393.015C457.242 393.015 457.244 393.015 457.246 393.015C457.247 393.015 457.249 393.015 457.251 393.015C457.253 393.015 457.254 393.015 457.256 393.015C457.258 393.015 457.26 393.015 457.261 393.015C457.263 393.015 457.265 393.015 457.267 393.015C457.268 393.015 457.27 393.015 457.272 393.015C457.274 393.015 457.276 393.015 457.277 393.015C457.279 393.015 457.281 393.015 457.283 393.015C457.284 393.015 457.286 393.015 457.288 393.015C457.29 393.015 457.292 393.015 457.293 393.015C457.295 393.015 457.297 393.015 457.299 393.015C457.301 393.015 457.303 393.015 457.304 393.015C457.306 393.015 457.308 393.015 457.31 393.015C457.312 393.015 457.313 393.015 457.315 393.015C457.317 393.015 457.319 393.015 457.321 393.015C457.323 393.015 457.324 393.015 457.326 393.015C457.328 393.015 457.33 393.015 457.332 393.015C457.334 393.015 457.336 393.015 457.337 393.015C457.339 393.015 457.341 393.015 457.343 393.015C457.345 393.015 457.347 393.015 457.349 393.015C457.35 393.015 457.352 393.015 457.354 393.015C457.356 393.015 457.358 393.015 457.36 393.015C457.362 393.015 457.364 393.015 457.365 393.015C457.367 393.015 457.369 393.015 457.371 393.015C457.373 393.015 457.375 393.015 457.377 393.015C457.379 393.015 457.381 393.015 457.383 393.015C457.384 393.015 457.386 393.015 457.388 393.015C457.39 393.015 457.392 393.015 457.394 393.015C457.396 393.015 457.398 393.015 457.4 393.015C457.402 393.015 457.404 393.015 457.406 393.015C457.408 393.015 457.409 393.015 457.411 393.015C457.413 393.015 457.415 393.015 457.417 393.015C457.419 393.015 457.421 393.015 457.423 393.015C457.425 393.015 457.427 393.015 457.429 393.015C457.431 393.015 457.433 393.015 457.435 393.015C457.437 393.015 457.439 393.015 457.441 393.015C457.443 393.015 457.445 393.015 457.447 393.015C457.449 393.015 457.451 393.015 457.453 393.015C457.455 393.015 457.457 393.015 457.459 393.015V387.015C457.457 387.015 457.455 387.015 457.453 387.015C457.451 387.015 457.449 387.015 457.447 387.015C457.445 387.015 457.443 387.015 457.441 387.015C457.439 387.015 457.437 387.015 457.435 387.015C457.433 387.015 457.431 387.015 457.429 387.015C457.427 387.015 457.425 387.015 457.423 387.015C457.421 387.015 457.419 387.015 457.417 387.015C457.415 387.015 457.413 387.015 457.411 387.015C457.409 387.015 457.408 387.015 457.406 387.015C457.404 387.015 457.402 387.015 457.4 387.015C457.398 387.015 457.396 387.015 457.394 387.015C457.392 387.015 457.39 387.015 457.388 387.015C457.386 387.015 457.384 387.015 457.383 387.015C457.381 387.015 457.379 387.015 457.377 387.015C457.375 387.015 457.373 387.015 457.371 387.015C457.369 387.015 457.367 387.015 457.365 387.015C457.364 387.015 457.362 387.015 457.36 387.015C457.358 387.015 457.356 387.015 457.354 387.015C457.352 387.015 457.35 387.015 457.349 387.015C457.347 387.015 457.345 387.015 457.343 387.015C457.341 387.015 457.339 387.015 457.337 387.015C457.336 387.015 457.334 387.015 457.332 387.015C457.33 387.015 457.328 387.015 457.326 387.015C457.324 387.015 457.323 387.015 457.321 387.015C457.319 387.015 457.317 387.015 457.315 387.015C457.313 387.015 457.312 387.015 457.31 387.015C457.308 387.015 457.306 387.015 457.304 387.015C457.303 387.015 457.301 387.015 457.299 387.015C457.297 387.015 457.295 387.015 457.293 387.015C457.292 387.015 457.29 387.015 457.288 387.015C457.286 387.015 457.284 387.015 457.283 387.015C457.281 387.015 457.279 387.015 457.277 387.015C457.276 387.015 457.274 387.015 457.272 387.015C457.27 387.015 457.268 387.015 457.267 387.015C457.265 387.015 457.263 387.015 457.261 387.015C457.26 387.015 457.258 387.015 457.256 387.015C457.254 387.015 457.253 387.015 457.251 387.015C457.249 387.015 457.247 387.015 457.246 387.015C457.244 387.015 457.242 387.015 457.24 387.015C457.239 387.015 457.237 387.015 457.235 387.015C457.233 387.015 457.232 387.015 457.23 387.015C457.228 387.015 457.226 387.015 457.225 387.015C457.223 387.015 457.221 387.015 457.22 387.015C457.218 387.015 457.216 387.015 457.214 387.015C457.213 387.015 457.211 387.015 457.209 387.015C457.208 387.015 457.206 387.015 457.204 387.015C457.203 387.015 457.201 387.015 457.199 387.015C457.198 387.015 457.196 387.015 457.194 387.015C457.192 387.015 457.191 387.015 457.189 387.015C457.187 387.015 457.186 387.015 457.184 387.015C457.182 387.015 457.181 387.015 457.179 387.015C457.177 387.015 457.176 387.015 457.174 387.015C457.172 387.015 457.171 387.015 457.169 387.015C457.168 387.015 457.166 387.015 457.164 387.015C457.163 387.015 457.161 387.015 457.159 387.015C457.158 387.015 457.156 387.015 457.154 387.015C457.153 387.015 457.151 387.015 457.15 387.015C457.148 387.015 457.146 387.015 457.145 387.015C457.143 387.015 457.141 387.015 457.14 387.015C457.138 387.015 457.137 387.015 457.135 387.015C457.133 387.015 457.132 387.015 457.13 387.015C457.129 387.015 457.127 387.015 457.125 387.015C457.124 387.015 457.122 387.015 457.121 387.015C457.119 387.015 457.118 387.015 457.116 387.015C457.114 387.015 457.113 387.015 457.111 387.015C457.11 387.015 457.108 387.015 457.107 387.015C457.105 387.015 457.103 387.015 457.102 387.015C457.1 387.015 457.099 387.015 457.097 387.015C457.096 387.015 457.094 387.015 457.093 387.015C457.091 387.015 457.089 387.015 457.088 387.015C457.086 387.015 457.085 387.015 457.083 387.015C457.082 387.015 457.08 387.015 457.079 387.015C457.077 387.015 457.076 387.015 457.074 387.015C457.073 387.015 457.071 387.015 457.07 387.015C457.068 387.015 457.067 387.015 457.065 387.015C457.064 387.015 457.062 387.015 457.061 387.015C457.059 387.015 457.058 387.015 457.056 387.015C457.055 387.015 457.053 387.015 457.052 387.015C457.05 387.015 457.049 387.015 457.047 387.015C457.046 387.015 457.044 387.015 457.043 387.015C457.041 387.015 457.04 387.015 457.038 387.015C457.037 387.015 457.035 387.015 457.034 387.015C457.032 387.015 457.031 387.015 457.03 387.015C457.028 387.015 457.027 387.015 457.025 387.015C457.024 387.015 457.022 387.015 457.021 387.015C457.019 387.015 457.018 387.015 457.017 387.015C457.015 387.015 457.014 387.015 457.012 387.015C457.011 387.015 457.009 387.015 457.008 387.015C457.007 387.015 457.005 387.015 457.004 387.015C457.002 387.015 457.001 387.015 457 387.015C456.998 387.015 456.997 387.015 456.995 387.015C456.994 387.015 456.992 387.015 456.991 387.015C456.99 387.015 456.988 387.015 456.987 387.015C456.986 387.015 456.984 387.015 456.983 387.015C456.981 387.015 456.98 387.015 456.979 387.015C456.977 387.015 456.976 387.015 456.974 387.015C456.973 387.015 456.972 387.015 456.97 387.015C456.969 387.015 456.968 387.015 456.966 387.015C456.965 387.015 456.964 387.015 456.962 387.015C456.961 387.015 456.96 387.015 456.958 387.015C456.957 387.015 456.956 387.015 456.954 387.015C456.953 387.015 456.952 387.015 456.95 387.015C456.949 387.015 456.948 387.015 456.946 387.015C456.945 387.015 456.944 387.015 456.942 387.015C456.941 387.015 456.94 387.015 456.938 387.015C456.937 387.015 456.936 387.015 456.934 387.015C456.933 387.015 456.932 387.015 456.93 387.015C456.929 387.015 456.928 387.015 456.927 387.015C456.925 387.015 456.924 387.015 456.923 387.015C456.921 387.015 456.92 387.015 456.919 387.015C456.918 387.015 456.916 387.015 456.915 387.015C456.914 387.015 456.913 387.015 456.911 387.015C456.91 387.015 456.909 387.015 456.907 387.015C456.906 387.015 456.905 387.015 456.904 387.015C456.902 387.015 456.901 387.015 456.9 387.015C456.899 387.015 456.897 387.015 456.896 387.015C456.895 387.015 456.894 387.015 456.893 387.015C456.891 387.015 456.89 387.015 456.889 387.015C456.888 387.015 456.886 387.015 456.885 387.015C456.884 387.015 456.883 387.015 456.881 387.015C456.88 387.015 456.879 387.015 456.878 387.015C456.877 387.015 456.875 387.015 456.874 387.015C456.873 387.015 456.872 387.015 456.871 387.015C456.869 387.015 456.868 387.015 456.867 387.015C456.866 387.015 456.865 387.015 456.864 387.015C456.862 387.015 456.861 387.015 456.86 387.015C456.859 387.015 456.858 387.015 456.856 387.015C456.855 387.015 456.854 387.015 456.853 387.015C456.852 387.015 456.851 387.015 456.849 387.015C456.848 387.015 456.847 387.015 456.846 387.015C456.845 387.015 456.844 387.015 456.843 387.015C456.841 387.015 456.84 387.015 456.839 387.015C456.838 387.015 456.837 387.015 456.836 387.015C456.835 387.015 456.834 387.015 456.832 387.015C456.831 387.015 456.83 387.015 456.829 387.015C456.828 387.015 456.827 387.015 456.826 387.015C456.825 387.015 456.823 387.015 456.822 387.015C456.821 387.015 456.82 387.015 456.819 387.015C456.818 387.015 456.817 387.015 456.816 387.015C456.815 387.015 456.814 387.015 456.813 387.015C456.811 387.015 456.81 387.015 456.809 387.015C456.808 387.015 456.807 387.015 456.806 387.015C456.805 387.015 456.804 387.015 456.803 387.015C456.802 387.015 456.801 387.015 456.8 387.015C456.799 387.015 456.798 387.015 456.797 387.015C456.795 387.015 456.794 387.015 456.793 387.015C456.792 387.015 456.791 387.015 456.79 387.015C456.789 387.015 456.788 387.015 456.787 387.015C456.786 387.015 456.785 387.015 456.784 387.015C456.783 387.015 456.782 387.015 456.781 387.015C456.78 387.015 456.779 387.015 456.778 387.015C456.777 387.015 456.776 387.015 456.775 387.015C456.774 387.015 456.773 387.015 456.772 387.015C456.771 387.015 456.77 387.015 456.769 387.015C456.768 387.015 456.767 387.015 456.766 387.015C456.765 387.015 456.764 387.015 456.763 387.015C456.762 387.015 456.761 387.015 456.76 387.015C456.759 387.015 456.758 387.015 456.757 387.015C456.756 387.015 456.755 387.015 456.754 387.015C456.753 387.015 456.752 387.015 456.751 387.015C456.75 387.015 456.749 387.015 456.749 387.015C456.748 387.015 456.747 387.015 456.746 387.015C456.745 387.015 456.744 387.015 456.743 387.015C456.742 387.015 456.741 387.015 456.74 387.015C456.739 387.015 456.738 387.015 456.737 387.015C456.736 387.015 456.735 387.015 456.735 387.015C456.734 387.015 456.733 387.015 456.732 387.015C456.731 387.015 456.73 387.015 456.729 387.015C456.728 387.015 456.727 387.015 456.726 387.015C456.725 387.015 456.725 387.015 456.724 387.015C456.723 387.015 456.722 387.015 456.721 387.015C456.72 387.015 456.719 387.015 456.718 387.015C456.718 387.015 456.717 387.015 456.716 387.015C456.715 387.015 456.714 387.015 456.713 387.015C456.712 387.015 456.711 387.015 456.711 387.015C456.71 387.015 456.709 387.015 456.708 387.015C456.707 387.015 456.706 387.015 456.706 387.015C456.705 387.015 456.704 387.015 456.703 387.015C456.702 387.015 456.701 387.015 456.7 387.015C456.7 387.015 456.699 387.015 456.698 387.015C456.697 387.015 456.696 387.015 456.696 387.015C456.695 387.015 456.694 387.015 456.693 387.015C456.692 387.015 456.691 387.015 456.691 387.015C456.69 387.015 456.689 387.015 456.688 387.015C456.687 387.015 456.687 387.015 456.686 387.015C456.685 387.015 456.684 387.015 456.683 387.015C456.683 387.015 456.682 387.015 456.681 387.015C456.68 387.015 456.68 387.015 456.679 387.015C456.678 387.015 456.677 387.015 456.677 387.015C456.676 387.015 456.675 387.015 456.674 387.015C456.673 387.015 456.673 387.015 456.672 387.015C456.671 387.015 456.67 387.015 456.67 387.015C456.669 387.015 456.668 387.015 456.667 387.015C456.667 387.015 456.666 387.015 456.665 387.015C456.665 387.015 456.664 387.015 456.663 387.015C456.662 387.015 456.662 387.015 456.661 387.015C456.66 387.015 456.659 387.015 456.659 387.015C456.658 387.015 456.657 387.015 456.657 387.015C456.656 387.015 456.655 387.015 456.654 387.015C456.654 387.015 456.653 387.015 456.652 387.015C456.652 387.015 456.651 387.015 456.65 387.015C456.65 387.015 456.649 387.015 456.648 387.015C456.648 387.015 456.647 387.015 456.646 387.015C456.646 387.015 456.645 387.015 456.644 387.015C456.644 387.015 456.643 387.015 456.642 387.015C456.642 387.015 456.641 387.015 456.64 387.015C456.64 387.015 456.639 387.015 456.638 387.015C456.638 387.015 456.637 387.015 456.636 387.015C456.636 387.015 456.635 387.015 456.634 387.015C456.634 387.015 456.633 387.015 456.633 387.015C456.632 387.015 456.631 387.015 456.631 387.015C456.63 387.015 456.629 387.015 456.629 387.015C456.628 387.015 456.628 387.015 456.627 387.015C456.626 387.015 456.626 387.015 456.625 387.015C456.624 387.015 456.624 387.015 456.623 387.015C456.623 387.015 456.622 387.015 456.622 387.015C456.621 387.015 456.62 387.015 456.62 387.015C456.619 387.015 456.619 387.015 456.618 387.015C456.617 387.015 456.617 387.015 456.616 387.015C456.616 387.015 456.615 387.015 456.615 387.015C456.614 387.015 456.613 387.015 456.613 387.015C456.612 387.015 456.612 387.015 456.611 387.015C456.611 387.015 456.61 387.015 456.61 387.015C456.609 387.015 456.608 387.015 456.608 387.015C456.607 387.015 456.607 387.015 456.606 387.015C456.606 387.015 456.605 387.015 456.605 387.015C456.604 387.015 456.604 387.015 456.603 387.015C456.603 387.015 456.602 387.015 456.602 387.015C456.601 387.015 456.601 387.015 456.6 387.015C456.6 387.015 456.599 387.015 456.599 387.015C456.598 387.015 456.598 387.015 456.597 387.015C456.597 387.015 456.596 387.015 456.596 387.015C456.595 387.015 456.595 387.015 456.594 387.015C456.594 387.015 456.593 387.015 456.593 387.015C456.592 387.015 456.592 387.015 456.591 387.015C456.591 387.015 456.59 387.015 456.59 387.015C456.589 387.015 456.589 387.015 456.589 387.015C456.588 387.015 456.588 387.015 456.587 387.015C456.587 387.015 456.586 387.015 456.586 387.015C456.585 387.015 456.585 387.015 456.585 387.015C456.584 387.015 456.584 387.015 456.583 387.015C456.583 387.015 456.582 387.015 456.582 387.015C456.582 387.015 456.581 387.015 456.581 387.015C456.58 387.015 456.58 387.015 456.579 387.015C456.579 387.015 456.579 387.015 456.578 387.015C456.578 387.015 456.577 387.015 456.577 387.015C456.577 387.015 456.576 387.015 456.576 387.015C456.575 387.015 456.575 387.015 456.575 387.015C456.574 387.015 456.574 387.015 456.574 387.015C456.573 387.015 456.573 387.015 456.572 387.015C456.572 387.015 456.572 387.015 456.571 387.015C456.571 387.015 456.571 387.015 456.57 387.015C456.57 387.015 456.57 387.015 456.569 387.015C456.569 387.015 456.568 387.015 456.568 387.015C456.568 387.015 456.567 387.015 456.567 387.015C456.567 387.015 456.566 387.015 456.566 387.015C456.566 387.015 456.565 387.015 456.565 387.015C456.565 387.015 456.564 387.015 456.564 387.015C456.564 387.015 456.564 387.015 456.563 387.015C456.563 387.015 456.563 387.015 456.562 387.015C456.562 387.015 456.562 387.015 456.561 387.015C456.561 387.015 456.561 387.015 456.56 387.015C456.56 387.015 456.56 387.015 456.56 387.015C456.559 387.015 456.559 387.015 456.559 387.015C456.558 387.015 456.558 387.015 456.558 387.015C456.558 387.015 456.557 387.015 456.557 387.015C456.557 387.015 456.557 387.015 456.556 387.015C456.556 387.015 456.556 387.015 456.556 387.015C456.555 387.015 456.555 387.015 456.555 387.015C456.555 387.015 456.554 387.015 456.554 387.015C456.554 387.015 456.554 387.015 456.553 387.015C456.553 387.015 456.553 387.015 456.553 387.015C456.552 387.015 456.552 387.015 456.552 387.015C456.552 387.015 456.552 387.015 456.551 387.015C456.551 387.015 456.551 387.015 456.551 387.015C456.55 387.015 456.55 387.015 456.55 387.015C456.55 387.015 456.55 387.015 456.549 387.015C456.549 387.015 456.549 387.015 456.549 387.015C456.549 387.015 456.549 387.015 456.548 387.015C456.548 387.015 456.548 387.015 456.548 387.015C456.548 387.015 456.547 387.015 456.547 387.015C456.547 387.015 456.547 387.015 456.547 387.015C456.547 387.015 456.546 387.015 456.546 387.015C456.546 387.015 456.546 387.015 456.546 387.015C456.546 387.015 456.546 387.015 456.545 387.015C456.545 387.015 456.545 387.015 456.545 387.015C456.545 387.015 456.545 387.015 456.545 387.015C456.544 387.015 456.544 387.015 456.544 387.015C456.544 387.015 456.544 387.015 456.544 387.015C456.544 387.015 456.544 387.015 456.543 387.015C456.543 387.015 456.543 387.015 456.543 387.015C456.543 387.015 456.543 387.015 456.543 387.015C456.543 387.015 456.543 387.015 456.543 387.015C456.542 387.015 456.542 387.015 456.542 387.015C456.542 387.015 456.542 387.015 456.542 387.015C456.542 387.015 456.542 387.015 456.542 387.015C456.542 387.015 456.542 387.015 456.542 387.015C456.542 387.015 456.541 387.015 456.541 387.015C456.541 387.015 456.541 387.015 456.541 387.015C456.541 387.015 456.541 387.015 456.541 387.015C456.541 387.015 456.541 387.015 456.541 387.015C456.541 387.015 456.541 387.015 456.541 387.015C456.541 387.015 456.541 387.015 456.541 387.015C456.541 387.015 456.541 387.015 456.541 387.015C456.541 387.015 456.541 387.015 456.541 387.015C456.541 387.015 456.541 387.015 456.541 387.015C456.541 387.015 456.541 387.015 456.541 387.015C456.541 390.015 456.541 393.015 456.541 393.015C456.541 393.015 456.541 393.015 456.541 393.015C456.541 393.015 456.541 393.015 456.541 393.015C456.541 393.015 456.541 393.015 456.541 393.015C456.541 393.015 456.541 393.015 456.541 393.015C456.541 393.015 456.541 393.015 456.541 393.015C456.541 393.015 456.541 393.015 456.541 393.015C456.541 393.015 456.541 393.015 456.541 393.015C456.541 393.015 456.541 393.015 456.541 393.015C456.541 393.015 456.541 393.015 456.542 393.015C456.542 393.015 456.542 393.015 456.542 393.015C456.542 393.015 456.542 393.015 456.542 393.015C456.542 393.015 456.542 393.015 456.542 393.015C456.542 393.015 456.542 393.015 456.542 393.015C456.543 393.015 456.543 393.015 456.543 393.015C456.543 393.015 456.543 393.015 456.543 393.015C456.543 393.015 456.543 393.015 456.543 393.015C456.543 393.015 456.544 393.015 456.544 393.015C456.544 393.015 456.544 393.015 456.544 393.015C456.544 393.015 456.544 393.015 456.544 393.015C456.545 393.015 456.545 393.015 456.545 393.015C456.545 393.015 456.545 393.015 456.545 393.015C456.545 393.015 456.546 393.015 456.546 393.015C456.546 393.015 456.546 393.015 456.546 393.015C456.546 393.015 456.546 393.015 456.547 393.015C456.547 393.015 456.547 393.015 456.547 393.015C456.547 393.015 456.547 393.015 456.548 393.015C456.548 393.015 456.548 393.015 456.548 393.015C456.548 393.015 456.548 393.015 456.549 393.015C456.549 393.015 456.549 393.015 456.549 393.015C456.549 393.015 456.55 393.015 456.55 393.015C456.55 393.015 456.55 393.015 456.55 393.015C456.551 393.015 456.551 393.015 456.551 393.015C456.551 393.015 456.551 393.015 456.552 393.015C456.552 393.015 456.552 393.015 456.552 393.015C456.553 393.015 456.553 393.015 456.553 393.015C456.553 393.015 456.554 393.015 456.554 393.015C456.554 393.015 456.554 393.015 456.554 393.015C456.555 393.015 456.555 393.015 456.555 393.015C456.555 393.015 456.556 393.015 456.556 393.015C456.556 393.015 456.557 393.015 456.557 393.015C456.557 393.015 456.557 393.015 456.558 393.015C456.558 393.015 456.558 393.015 456.558 393.015C456.559 393.015 456.559 393.015 456.559 393.015C456.56 393.015 456.56 393.015 456.56 393.015C456.56 393.015 456.561 393.015 456.561 393.015C456.561 393.015 456.562 393.015 456.562 393.015C456.562 393.015 456.563 393.015 456.563 393.015C456.563 393.015 456.563 393.015 456.564 393.015C456.564 393.015 456.564 393.015 456.565 393.015C456.565 393.015 456.565 393.015 456.566 393.015C456.566 393.015 456.566 393.015 456.567 393.015C456.567 393.015 456.567 393.015 456.568 393.015C456.568 393.015 456.568 393.015 456.569 393.015C456.569 393.015 456.569 393.015 456.57 393.015C456.57 393.015 456.571 393.015 456.571 393.015C456.571 393.015 456.572 393.015 456.572 393.015C456.572 393.015 456.573 393.015 456.573 393.015C456.573 393.015 456.574 393.015 456.574 393.015C456.575 393.015 456.575 393.015 456.575 393.015C456.576 393.015 456.576 393.015 456.577 393.015C456.577 393.015 456.577 393.015 456.578 393.015C456.578 393.015 456.579 393.015 456.579 393.015C456.579 393.015 456.58 393.015 456.58 393.015C456.581 393.015 456.581 393.015 456.581 393.015C456.582 393.015 456.582 393.015 456.583 393.015C456.583 393.015 456.584 393.015 456.584 393.015C456.584 393.015 456.585 393.015 456.585 393.015C456.586 393.015 456.586 393.015 456.587 393.015C456.587 393.015 456.588 393.015 456.588 393.015C456.588 393.015 456.589 393.015 456.589 393.015C456.59 393.015 456.59 393.015 456.591 393.015C456.591 393.015 456.592 393.015 456.592 393.015C456.593 393.015 456.593 393.015 456.594 393.015C456.594 393.015 456.595 393.015 456.595 393.015C456.596 393.015 456.596 393.015 456.596 393.015C456.597 393.015 456.597 393.015 456.598 393.015C456.598 393.015 456.599 393.015 456.599 393.015C456.6 393.015 456.6 393.015 456.601 393.015C456.602 393.015 456.602 393.015 456.603 393.015C456.603 393.015 456.604 393.015 456.604 393.015C456.605 393.015 456.605 393.015 456.606 393.015C456.606 393.015 456.607 393.015 456.607 393.015C456.608 393.015 456.608 393.015 456.609 393.015C456.609 393.015 456.61 393.015 456.611 393.015C456.611 393.015 456.612 393.015 456.612 393.015C456.613 393.015 456.613 393.015 456.614 393.015C456.614 393.015 456.615 393.015 456.616 393.015C456.616 393.015 456.617 393.015 456.617 393.015C456.618 393.015 456.618 393.015 456.619 393.015C456.62 393.015 456.62 393.015 456.621 393.015C456.621 393.015 456.622 393.015 456.623 393.015C456.623 393.015 456.624 393.015 456.624 393.015C456.625 393.015 456.626 393.015 456.626 393.015C456.627 393.015 456.627 393.015 456.628 393.015C456.629 393.015 456.629 393.015 456.63 393.015C456.63 393.015 456.631 393.015 456.632 393.015C456.632 393.015 456.633 393.015 456.634 393.015C456.634 393.015 456.635 393.015 456.636 393.015C456.636 393.015 456.637 393.015 456.637 393.015C456.638 393.015 456.639 393.015 456.639 393.015C456.64 393.015 456.641 393.015 456.641 393.015C456.642 393.015 456.643 393.015 456.643 393.015C456.644 393.015 456.645 393.015 456.645 393.015C456.646 393.015 456.647 393.015 456.647 393.015C456.648 393.015 456.649 393.015 456.649 393.015C456.65 393.015 456.651 393.015 456.652 393.015C456.652 393.015 456.653 393.015 456.654 393.015C456.654 393.015 456.655 393.015 456.656 393.015C456.656 393.015 456.657 393.015 456.658 393.015C456.659 393.015 456.659 393.015 456.66 393.015C456.661 393.015 456.661 393.015 456.662 393.015C456.663 393.015 456.664 393.015 456.664 393.015C456.665 393.015 456.666 393.015 456.667 393.015C456.667 393.015 456.668 393.015 456.669 393.015C456.67 393.015 456.67 393.015 456.671 393.015C456.672 393.015 456.673 393.015 456.673 393.015C456.674 393.015 456.675 393.015 456.676 393.015C456.676 393.015 456.677 393.015 456.678 393.015C456.679 393.015 456.679 393.015 456.68 393.015C456.681 393.015 456.682 393.015 456.683 393.015C456.683 393.015 456.684 393.015 456.685 393.015C456.686 393.015 456.686 393.015 456.687 393.015C456.688 393.015 456.689 393.015 456.69 393.015C456.69 393.015 456.691 393.015 456.692 393.015C456.693 393.015 456.694 393.015 456.695 393.015C456.695 393.015 456.696 393.015 456.697 393.015C456.698 393.015 456.699 393.015 456.699 393.015C456.7 393.015 456.701 393.015 456.702 393.015C456.703 393.015 456.704 393.015 456.704 393.015C456.705 393.015 456.706 393.015 456.707 393.015C456.708 393.015 456.709 393.015 456.71 393.015C456.71 393.015 456.711 393.015 456.712 393.015C456.713 393.015 456.714 393.015 456.715 393.015C456.716 393.015 456.716 393.015 456.717 393.015C456.718 393.015 456.719 393.015 456.72 393.015C456.721 393.015 456.722 393.015 456.723 393.015C456.724 393.015 456.724 393.015 456.725 393.015C456.726 393.015 456.727 393.015 456.728 393.015C456.729 393.015 456.73 393.015 456.731 393.015C456.732 393.015 456.733 393.015 456.733 393.015C456.734 393.015 456.735 393.015 456.736 393.015C456.737 393.015 456.738 393.015 456.739 393.015C456.74 393.015 456.741 393.015 456.742 393.015C456.743 393.015 456.744 393.015 456.745 393.015C456.745 393.015 456.746 393.015 456.747 393.015C456.748 393.015 456.749 393.015 456.75 393.015C456.751 393.015 456.752 393.015 456.753 393.015C456.754 393.015 456.755 393.015 456.756 393.015C456.757 393.015 456.758 393.015 456.759 393.015C456.76 393.015 456.761 393.015 456.762 393.015C456.763 393.015 456.764 393.015 456.765 393.015C456.766 393.015 456.767 393.015 456.768 393.015C456.769 393.015 456.77 393.015 456.771 393.015C456.772 393.015 456.773 393.015 456.774 393.015C456.775 393.015 456.776 393.015 456.777 393.015C456.778 393.015 456.779 393.015 456.78 393.015C456.781 393.015 456.782 393.015 456.783 393.015C456.784 393.015 456.785 393.015 456.786 393.015C456.787 393.015 456.788 393.015 456.789 393.015C456.79 393.015 456.791 393.015 456.792 393.015C456.793 393.015 456.794 393.015 456.795 393.015C456.796 393.015 456.797 393.015 456.798 393.015C456.799 393.015 456.801 393.015 456.802 393.015C456.803 393.015 456.804 393.015 456.805 393.015C456.806 393.015 456.807 393.015 456.808 393.015C456.809 393.015 456.81 393.015 456.811 393.015C456.812 393.015 456.813 393.015 456.814 393.015C456.816 393.015 456.817 393.015 456.818 393.015C456.819 393.015 456.82 393.015 456.821 393.015C456.822 393.015 456.823 393.015 456.824 393.015C456.825 393.015 456.827 393.015 456.828 393.015C456.829 393.015 456.83 393.015 456.831 393.015C456.832 393.015 456.833 393.015 456.834 393.015C456.836 393.015 456.837 393.015 456.838 393.015C456.839 393.015 456.84 393.015 456.841 393.015C456.842 393.015 456.844 393.015 456.845 393.015C456.846 393.015 456.847 393.015 456.848 393.015C456.849 393.015 456.85 393.015 456.852 393.015C456.853 393.015 456.854 393.015 456.855 393.015C456.856 393.015 456.857 393.015 456.859 393.015C456.86 393.015 456.861 393.015 456.862 393.015C456.863 393.015 456.864 393.015 456.866 393.015C456.867 393.015 456.868 393.015 456.869 393.015C456.87 393.015 456.872 393.015 456.873 393.015C456.874 393.015 456.875 393.015 456.876 393.015C456.878 393.015 456.879 393.015 456.88 393.015C456.881 393.015 456.882 393.015 456.884 393.015C456.885 393.015 456.886 393.015 456.887 393.015C456.889 393.015 456.89 393.015 456.891 393.015C456.892 393.015 456.893 393.015 456.895 393.015C456.896 393.015 456.897 393.015 456.898 393.015C456.9 393.015 456.901 393.015 456.902 393.015C456.903 393.015 456.905 393.015 456.906 393.015C456.907 393.015 456.908 393.015 456.91 393.015C456.911 393.015 456.912 393.015 456.914 393.015C456.915 393.015 456.916 393.015 456.917 393.015C456.919 393.015 456.92 393.015 456.921 393.015C456.922 393.015 456.924 393.015 456.925 393.015C456.926 393.015 456.928 393.015 456.929 393.015C456.93 393.015 456.932 393.015 456.933 393.015C456.934 393.015 456.935 393.015 456.937 393.015C456.938 393.015 456.939 393.015 456.941 393.015C456.942 393.015 456.943 393.015 456.945 393.015C456.946 393.015 456.947 393.015 456.949 393.015V387.015ZM457.952 392.974C458.556 392.873 458.593 392.887 458.415 392.887C458.365 392.887 458.232 392.886 458.057 392.863C458.006 392.856 457.417 392.796 456.81 392.392C456.451 392.152 455.87 391.645 455.605 390.762C455.328 389.841 455.555 389.043 455.794 388.564C456.172 387.809 456.765 387.446 456.799 387.423C456.96 387.316 457.092 387.251 457.14 387.229C457.201 387.2 457.246 387.181 457.265 387.174C457.301 387.159 457.31 387.157 457.275 387.169L459.172 392.861C459.264 392.83 459.377 392.791 459.493 392.745C459.549 392.722 459.83 392.613 460.127 392.416C460.176 392.382 460.779 392.01 461.161 391.247C461.403 390.764 461.629 389.963 461.352 389.038C461.086 388.152 460.502 387.641 460.139 387.399C459.524 386.989 458.921 386.925 458.85 386.916C458.656 386.89 458.496 386.887 458.415 386.887C457.982 386.887 457.381 386.987 456.965 387.056L457.952 392.974ZM458.224 387.015C458.127 387.015 458.002 387.017 457.869 387.026C457.827 387.028 457.453 387.046 457.036 387.185C456.908 387.228 456.684 387.311 456.431 387.463C456.201 387.601 455.747 387.914 455.397 388.496C454.986 389.181 454.853 390.024 455.075 390.835C455.264 391.528 455.647 391.968 455.851 392.172C456.239 392.56 456.64 392.743 456.725 392.782C456.878 392.854 457.009 392.9 457.084 392.925C457.484 393.058 458.067 393.158 458.495 393.229L459.482 387.311C458.891 387.212 458.836 387.184 458.981 387.233C459.024 387.247 459.129 387.283 459.262 387.345C459.327 387.375 459.714 387.55 460.094 387.93C460.294 388.129 460.675 388.566 460.863 389.256C461.083 390.063 460.951 390.902 460.542 391.583C460.194 392.163 459.744 392.472 459.518 392.608C459.27 392.756 459.054 392.837 458.933 392.877C458.695 392.957 458.504 392.985 458.442 392.994C458.357 393.006 458.295 393.011 458.268 393.012C458.214 393.016 458.192 393.015 458.224 393.015V387.015ZM458.04 393.116L459.57 393.626L461.467 387.934L459.937 387.424L458.04 393.116ZM458.514 388.548C454.615 392.05 450.995 393.957 447.656 394.59C444.382 395.21 441.124 394.654 437.77 392.758L434.817 397.982C439.283 400.506 443.973 401.395 448.773 400.485C453.51 399.588 458.093 396.99 462.523 393.012L458.514 388.548ZM437.858 392.81C434.916 391.012 432.328 389.149 430.086 387.227L426.181 391.783C428.699 393.941 431.552 395.988 434.729 397.93L437.858 392.81ZM430.175 387.307C427.532 384.852 424.52 383.183 421.254 383.455L421.753 389.435C422.567 389.367 423.975 389.738 426.092 391.703L430.175 387.307ZM422.94 383.811C421.801 383.19 421.229 382.394 420.995 381.294C420.729 380.041 420.86 378.149 421.791 375.433L416.116 373.487C415.007 376.721 414.543 379.801 415.127 382.543C415.743 385.438 417.466 387.66 420.067 389.079L422.94 383.811ZM421.779 375.469C422.438 373.625 423.657 371.808 425.578 370.034L421.509 365.626C419.01 367.932 417.17 370.535 416.128 373.451L421.779 375.469ZM425.585 370.028C427.539 368.214 430.03 366.904 433.163 366.158L431.774 360.322C427.767 361.276 424.309 363.026 421.502 365.632L425.585 370.028ZM433.654 365.996C450.183 358.889 465.206 357.341 478.86 361.036L480.427 355.244C465.182 351.119 448.755 352.971 431.284 360.484L433.654 365.996ZM478.88 361.041C484.618 362.551 488.222 365.517 490.169 369.83L495.638 367.36C492.825 361.133 487.589 357.129 480.407 355.239L478.88 361.041ZM490.22 369.937C492.508 374.513 493.539 379.765 493.223 385.777L499.214 386.093C499.578 379.185 498.399 372.877 495.587 367.253L490.22 369.937ZM493.223 385.777C492.901 391.893 491.531 398.129 489.084 404.493L494.684 406.647C497.336 399.751 498.856 392.897 499.214 386.093L493.223 385.777ZM489.06 404.556C486.738 411.026 484.214 416.113 481.531 419.901L486.427 423.369C489.523 418.997 492.27 413.374 494.707 406.584L489.06 404.556ZM481.566 419.852C478.786 423.613 474.806 428.182 469.584 433.573L473.893 437.747C479.211 432.258 483.391 427.477 486.391 423.418L481.566 419.852ZM469.55 433.608C464.649 438.836 458.387 443.957 450.72 448.957L453.997 453.983C461.97 448.783 468.628 443.364 473.927 437.712L469.55 433.608ZM450.731 448.95C432.003 461.049 412.021 466.816 390.718 466.321L390.579 472.319C413.137 472.844 434.294 466.711 453.986 453.99L450.731 448.95ZM390.697 466.32C375.171 466.071 363.173 462.773 354.425 456.717C345.739 450.704 339.969 441.773 337.219 429.642L331.368 430.968C334.398 444.337 340.91 454.658 351.01 461.65C361.047 468.599 374.336 472.059 390.6 472.32L390.697 466.32ZM337.218 429.635C335.412 421.756 334.576 412.823 334.743 402.815L328.744 402.715C328.571 413.107 329.435 422.534 331.369 430.975L337.218 429.635ZM334.739 402.937C336.409 373.869 345.09 346.728 360.81 321.475L355.717 318.305C339.477 344.392 330.478 372.501 328.749 402.593L334.739 402.937ZM360.808 321.48C368.289 309.51 378.387 297.643 391.151 285.887L387.086 281.473C374.01 293.517 363.539 305.79 355.72 318.3L360.808 321.48ZM391.12 285.914C399.009 278.848 407.875 273.43 417.732 269.651L415.585 264.049C405.043 268.09 395.548 273.892 387.117 281.445L391.12 285.914ZM417.788 269.629C423.08 267.48 429.499 265.392 437.067 263.374L435.521 257.576C427.788 259.638 421.118 261.8 415.529 264.071L417.788 269.629Z" fill="black"/>
</g>
</svg>
