<svg width="307" height="74" viewBox="0 0 307 74" fill="none" xmlns="http://www.w3.org/2000/svg">
<path id="Team NG" d="M8.496 16.048L8.6387 13.0514L8.60682 13.0499L8.57492 13.049L8.496 16.048ZM18.672 16.048L18.4958 13.0532L18.4643 13.055L18.4328 13.0576L18.672 16.048ZM20.736 15.952L20.845 12.954L20.7905 12.952H20.736V15.952ZM25.2 16.912L23.9157 19.6232L23.9371 19.6333L23.9586 19.6431L25.2 16.912ZM26.064 17.488L28.1853 15.3667L28.1853 15.3667L26.064 17.488ZM25.728 20.416L27.9212 22.4629L27.954 22.4277L27.9857 22.3915L25.728 20.416ZM21.024 20.848L20.4663 23.7957L20.5328 23.8083L20.5997 23.8178L21.024 20.848ZM15.936 20.56L15.7223 17.5676L13.1791 17.7493L12.9483 20.2884L15.936 20.56ZM16.224 42.64L13.2292 42.8162L13.2301 42.8313L13.2311 42.8464L16.224 42.64ZM16.32 44.032H19.32V43.9287L19.3129 43.8256L16.32 44.032ZM11.664 45.184L9.23196 46.9405L9.25599 46.9737L9.28093 47.0063L11.664 45.184ZM10.848 34.096L13.8459 33.9829L13.8454 33.9713L13.8449 33.9598L10.848 34.096ZM10.944 20.752L13.9407 20.8925L14.0892 17.725L10.9184 17.7521L10.944 20.752ZM5.328 20.8V23.8H5.34082L5.35364 23.7999L5.328 20.8ZM1.584 20.32L0.242361 23.0033L0.292034 23.0281L0.342592 23.0511L1.584 20.32ZM3.528 18.016C3.528 18.0389 3.52276 18.2042 3.4127 18.4295C3.29592 18.6686 3.12525 18.8435 2.97523 18.9458C2.84489 19.0348 2.78833 19.0304 2.89453 19.0062C3.00041 18.9822 3.20911 18.952 3.552 18.952V12.952C2.29627 12.952 0.824723 13.1493 -0.407232 13.9901C-1.8448 14.9713 -2.472 16.4839 -2.472 18.016H3.528ZM3.552 18.952C4.3706 18.952 5.98039 18.9828 8.41708 19.047L8.57492 13.049C6.14761 12.9852 4.4614 12.952 3.552 12.952V18.952ZM8.3533 19.0446C11.0531 19.1732 13.1426 19.24 14.592 19.24V13.24C13.2894 13.24 11.3149 13.1788 8.6387 13.0514L8.3533 19.0446ZM14.592 19.24C15.8178 19.24 17.2625 19.1703 18.9112 19.0384L18.4328 13.0576C16.8815 13.1817 15.6062 13.24 14.592 13.24V19.24ZM18.8482 19.0428C19.9657 18.9771 20.5553 18.952 20.736 18.952V12.952C20.3407 12.952 19.5543 12.9909 18.4958 13.0532L18.8482 19.0428ZM20.627 18.95C22.0997 19.0036 23.1628 19.2665 23.9157 19.6232L26.4843 14.2008C24.8052 13.4055 22.8923 13.0284 20.845 12.954L20.627 18.95ZM23.9586 19.6431C24.0044 19.6639 24.0208 19.6754 24.0159 19.6722C24.0105 19.6686 23.9826 19.6492 23.9427 19.6093L28.1853 15.3667C27.6577 14.8391 27.0509 14.458 26.4414 14.1809L23.9586 19.6431ZM23.9427 19.6093C23.6394 19.306 23.5029 18.9925 23.446 18.8055C23.3927 18.6304 23.4 18.5405 23.4 18.592H29.4C29.4 17.7542 29.2343 16.4156 28.1853 15.3667L23.9427 19.6093ZM23.4 18.592C23.4 18.6208 23.3965 18.5946 23.417 18.5389C23.4263 18.5135 23.4378 18.4901 23.4495 18.4705C23.4611 18.4512 23.4696 18.4413 23.4703 18.4405L27.9857 22.3915C28.9302 21.3122 29.4 19.995 29.4 18.592H23.4ZM23.5348 18.369C23.5587 18.3435 23.6368 18.2714 23.7731 18.2112C23.9111 18.1504 24.0313 18.136 24.096 18.136V24.136C25.5916 24.136 26.9224 23.533 27.9212 22.4629L23.5348 18.369ZM24.096 18.136C23.61 18.136 22.7553 18.0649 21.4483 17.8781L20.5997 23.8178C21.9807 24.0151 23.174 24.136 24.096 24.136V18.136ZM21.5817 17.9003C20.2723 17.6526 19.0384 17.512 17.904 17.512V23.512C18.5616 23.512 19.4077 23.5954 20.4663 23.7957L21.5817 17.9003ZM17.904 17.512C17.0209 17.512 16.2793 17.5278 15.7223 17.5676L16.1497 23.5524C16.4887 23.5282 17.0591 23.512 17.904 23.512V17.512ZM12.9483 20.2884C12.8373 21.5092 12.792 24.1894 12.792 28.144H18.792C18.792 24.0986 18.8427 21.7228 18.9237 20.8316L12.9483 20.2884ZM12.792 28.144C12.792 32.9724 12.9378 37.8632 13.2292 42.8162L19.2188 42.4638C18.9342 37.6248 18.792 32.8516 18.792 28.144H12.792ZM13.2311 42.8464L13.3271 44.2384L19.3129 43.8256L19.2169 42.4336L13.2311 42.8464ZM13.32 44.032C13.32 44.0805 13.3123 43.9905 13.3766 43.8222C13.4478 43.6359 13.5813 43.424 13.7839 43.2473C14.1731 42.9077 14.4465 43 14.064 43V49C15.1855 49 16.5869 48.7643 17.7281 47.7687C18.9476 46.7049 19.32 45.2651 19.32 44.032H13.32ZM14.064 43C13.8805 43 13.7467 42.9893 13.6555 42.9768C13.5636 42.9642 13.5306 42.9519 13.5417 42.9557C13.5539 42.9598 13.6221 42.9845 13.7197 43.0499C13.8209 43.1178 13.9387 43.2199 14.0471 43.3617L9.28093 47.0063C10.572 48.6947 12.6071 49 14.064 49V43ZM14.096 43.4275C14.1661 43.5246 14.1474 43.5461 14.1127 43.4018C14.0775 43.2559 14.04 42.9971 14.04 42.592H8.04C8.04 44.0153 8.28089 45.6236 9.23196 46.9405L14.096 43.4275ZM14.04 42.592C14.04 40.2688 13.9747 37.3961 13.8459 33.9829L7.85013 34.2091C7.97733 37.5798 8.04 40.3712 8.04 42.592H14.04ZM13.8449 33.9598C13.7169 31.1445 13.656 29.205 13.656 28.096H7.656C7.656 29.355 7.72306 31.4155 7.85109 34.2322L13.8449 33.9598ZM13.656 28.096C13.656 27.3847 13.747 25.026 13.9407 20.8925L7.94729 20.6115C7.75705 24.67 7.656 27.2073 7.656 28.096H13.656ZM10.9184 17.7521L5.30236 17.8001L5.35364 23.7999L10.9696 23.7519L10.9184 17.7521ZM5.328 17.8C4.51086 17.8 3.88645 17.7629 3.42949 17.7044C2.94132 17.6418 2.78802 17.5719 2.82541 17.5889L0.342592 23.0511C1.69248 23.6647 3.52801 23.8 5.328 23.8V17.8ZM2.92564 17.6367C3.05727 17.7025 3.18975 17.798 3.30477 17.92C3.41788 18.0399 3.48421 18.1537 3.51919 18.23C3.57995 18.3626 3.528 18.3383 3.528 18.016H-2.472C-2.472 19.6974 -1.94531 21.9095 0.242361 23.0033L2.92564 17.6367ZM25.0039 32.176L27.8189 33.2131L27.8232 33.2014L27.8275 33.1896L25.0039 32.176ZM26.7799 28.768L24.3438 27.0171L24.3438 27.0171L26.7799 28.768ZM30.2839 26.272L31.398 29.0574L31.4219 29.0479L31.4456 29.0379L30.2839 26.272ZM38.4439 25.792L37.6665 28.6895L37.6751 28.6918L37.6838 28.6941L38.4439 25.792ZM41.2279 27.424L38.7652 29.1372L38.7743 29.1503L38.7835 29.1633L41.2279 27.424ZM42.4279 34.528L39.8914 32.926L39.8606 32.9749L39.8316 33.0249L42.4279 34.528ZM40.8919 36.496L38.7218 34.4246L38.7163 34.4303L38.7108 34.4361L40.8919 36.496ZM38.2999 37.648L37.8197 34.6867L37.8067 34.6888L38.2999 37.648ZM32.1559 37.744L31.7065 40.7101L31.7506 40.7168L31.7949 40.7222L32.1559 37.744ZM29.0839 37.168L29.7447 34.2417L25.6846 33.3249L26.0988 37.4665L29.0839 37.168ZM29.5639 39.04L32.3288 37.8758L32.3288 37.8758L29.5639 39.04ZM30.4759 40.432L32.5421 38.257L32.5183 38.2343L32.4939 38.2122L30.4759 40.432ZM32.4439 41.584L31.749 44.5024L31.764 44.506L31.779 44.5094L32.4439 41.584ZM38.3479 41.248L37.3317 38.4253L37.2982 38.4374L37.2649 38.4503L38.3479 41.248ZM41.7079 41.392L39.4032 43.3126L39.4446 43.3622L39.4881 43.41L41.7079 41.392ZM40.7959 44.752L39.3466 42.1253L39.3466 42.1253L40.7959 44.752ZM37.5799 45.904L38.1376 48.8517L38.1678 48.846L38.1979 48.8396L37.5799 45.904ZM30.3319 45.424L29.2507 48.2224L29.2507 48.2224L30.3319 45.424ZM26.8279 43.12L24.5501 45.0724L24.5925 45.1219L24.6371 45.1695L26.8279 43.12ZM25.0039 39.904L22.1723 40.8951L22.1763 40.9063L22.1803 40.9176L25.0039 39.904ZM32.6839 29.776L33.7091 32.5954L33.7649 32.5751L33.8198 32.5526L32.6839 29.776ZM30.9559 30.88L33.1337 32.9432L33.1414 32.9351L33.149 32.927L30.9559 30.88ZM29.7559 32.368L27.1645 30.8564L27.1428 30.8936L27.1222 30.9314L29.7559 32.368ZM29.3719 33.856L26.3868 33.5575L26.1452 35.9733L28.4575 36.7133L29.3719 33.856ZM37.5319 33.616L36.103 30.9781L36.0792 30.991L36.0557 31.0043L37.5319 33.616ZM27.3319 35.824C27.3319 34.9846 27.4852 34.119 27.8189 33.2131L22.1888 31.1389C21.6266 32.665 21.3319 34.2314 21.3319 35.824H27.3319ZM27.8275 33.1896C28.1861 32.1906 28.6509 31.305 29.2159 30.5189L24.3438 27.0171C23.4368 28.279 22.7177 29.6653 22.1803 31.1624L27.8275 33.1896ZM29.2159 30.5189C29.5176 30.0992 30.1402 29.5606 31.398 29.0574L29.1697 23.4866C27.2275 24.2634 25.5142 25.3888 24.3438 27.0171L29.2159 30.5189ZM31.4456 29.0379C32.8116 28.4642 33.8301 28.264 34.5559 28.264V22.264C32.7857 22.264 30.9561 22.7358 29.1222 23.5061L31.4456 29.0379ZM34.5559 28.264C35.5578 28.264 36.5925 28.4014 37.6665 28.6895L39.2213 22.8945C37.6712 22.4786 36.1139 22.264 34.5559 22.264V28.264ZM37.6838 28.6941C38.1631 28.8197 38.4607 28.9525 38.6307 29.0521C38.7936 29.1476 38.8018 29.1899 38.7652 29.1372L43.6906 25.7108C42.5984 24.1408 40.8768 23.328 39.204 22.8899L37.6838 28.6941ZM38.7835 29.1633C39.7062 30.46 40.0039 31.4963 40.0039 32.32H46.0039C46.0039 29.9437 45.1176 27.716 43.6722 25.6847L38.7835 29.1633ZM40.0039 32.32C40.0039 32.7322 39.9164 32.8864 39.8914 32.926L44.9643 36.13C45.7073 34.9536 46.0039 33.6358 46.0039 32.32H40.0039ZM39.8316 33.0249C39.6344 33.3655 39.2876 33.8318 38.7218 34.4246L43.0619 38.5674C43.8401 37.7522 44.5174 36.9065 45.0242 36.0311L39.8316 33.0249ZM38.7108 34.4361C38.7588 34.3854 38.7554 34.4132 38.6175 34.4746C38.4742 34.5382 38.2218 34.6215 37.8197 34.6867L38.7801 40.6093C40.2973 40.3633 41.8965 39.8015 43.0729 38.5559L38.7108 34.4361ZM37.8067 34.6888C36.8154 34.854 35.8284 34.936 34.8439 34.936V40.936C36.1634 40.936 37.4803 40.826 38.7931 40.6072L37.8067 34.6888ZM34.8439 34.936C34.2686 34.936 33.5008 34.8851 32.5169 34.7658L31.7949 40.7222C32.9229 40.8589 33.9472 40.936 34.8439 40.936V34.936ZM32.6053 34.7779C31.6167 34.6281 30.6633 34.4491 29.7447 34.2417L28.4231 40.0943C29.4884 40.3349 30.5831 40.5399 31.7065 40.7101L32.6053 34.7779ZM26.0988 37.4665C26.1933 38.4121 26.4298 39.3274 26.799 40.2042L32.3288 37.8758C32.186 37.5366 32.1024 37.2039 32.069 36.8695L26.0988 37.4665ZM26.799 40.2042C27.1628 41.0683 27.6836 41.9479 28.4579 42.6518L32.4939 38.2122C32.5333 38.248 32.5288 38.2542 32.4933 38.1999C32.4573 38.1451 32.3991 38.0428 32.3288 37.8758L26.799 40.2042ZM28.4096 42.607C29.3286 43.48 30.4381 44.1903 31.749 44.5024L33.1387 38.6656C33.1057 38.6577 32.9032 38.6 32.5421 38.257L28.4096 42.607ZM31.779 44.5094C32.7812 44.7372 33.9207 44.824 35.1319 44.824V38.824C34.167 38.824 33.5146 38.7508 33.1087 38.6586L31.779 44.5094ZM35.1319 44.824C36.6234 44.824 38.0658 44.5741 39.4309 44.0457L37.2649 38.4503C36.646 38.6899 35.9444 38.824 35.1319 38.824V44.824ZM39.364 44.0707C39.6726 43.9596 39.9096 43.8923 40.0831 43.8542C40.2612 43.8151 40.331 43.816 40.3159 43.816V37.816C39.3035 37.816 38.2717 38.0869 37.3317 38.4253L39.364 44.0707ZM40.3159 43.816C40.3072 43.816 40.1725 43.8147 39.9728 43.7321C39.7578 43.6431 39.5559 43.4958 39.4032 43.3126L44.0125 39.4714C42.9997 38.256 41.6026 37.816 40.3159 37.816V43.816ZM39.4881 43.41C39.3654 43.2751 39.2802 43.1224 39.2318 42.982C39.1863 42.8501 39.1879 42.7724 39.1879 42.784H45.1879C45.1879 41.6272 44.8509 40.3895 43.9277 39.374L39.4881 43.41ZM39.1879 42.784C39.1879 42.6895 39.2023 42.5722 39.2425 42.4461C39.2827 42.3201 39.3381 42.2178 39.3906 42.1436C39.4898 42.0034 39.5352 42.0212 39.3466 42.1253L42.2451 47.3787C43.7721 46.5362 45.1879 45.0319 45.1879 42.784H39.1879ZM39.3466 42.1253C38.7192 42.4714 37.9358 42.7633 36.9618 42.9684L38.1979 48.8396C39.6559 48.5327 41.0165 48.0566 42.2451 47.3787L39.3466 42.1253ZM37.0222 42.9563C35.9218 43.1645 35.1688 43.24 34.6999 43.24V49.24C35.703 49.24 36.8699 49.0915 38.1376 48.8517L37.0222 42.9563ZM34.6999 43.24C33.567 43.24 32.4775 43.0368 31.4131 42.6256L29.2507 48.2224C31.0023 48.8992 32.8248 49.24 34.6999 49.24V43.24ZM31.4131 42.6256C30.3793 42.2262 29.605 41.6973 29.0187 41.0705L24.6371 45.1695C25.9067 46.5267 27.4685 47.5338 29.2507 48.2224L31.4131 42.6256ZM29.1056 41.1676C28.6027 40.5809 28.1673 39.8371 27.8275 38.8904L22.1803 40.9176C22.7365 42.4669 23.517 43.8671 24.5501 45.0724L29.1056 41.1676ZM27.8355 38.9129C27.5057 37.9707 27.3319 36.9475 27.3319 35.824H21.3319C21.3319 37.5805 21.6061 39.2773 22.1723 40.8951L27.8355 38.9129ZM34.7959 26.344C33.6719 26.344 32.5833 26.5758 31.548 26.9994L33.8198 32.5526C34.1925 32.4002 34.5118 32.344 34.7959 32.344V26.344ZM31.6586 26.9566C30.5729 27.3514 29.5765 27.9611 28.7627 28.833L33.149 32.927C33.2312 32.8389 33.3868 32.7126 33.7091 32.5954L31.6586 26.9566ZM28.778 28.8168C28.1566 29.4727 27.5656 30.1689 27.1645 30.8564L32.3472 33.8796C32.3942 33.7991 32.6032 33.5033 33.1337 32.9432L28.778 28.8168ZM27.1222 30.9314C26.6571 31.7842 26.4694 32.7312 26.3868 33.5575L32.357 34.1545C32.3774 33.9501 32.4031 33.8217 32.4207 33.7536C32.4391 33.6823 32.4393 33.7134 32.3896 33.8046L27.1222 30.9314ZM28.4575 36.7133C29.2033 36.9519 30.106 37.0672 30.9898 37.1352C31.9265 37.2072 33.0578 37.24 34.3639 37.24V31.24C33.142 31.24 32.1772 31.2088 31.45 31.1528C31.0875 31.125 30.8062 31.0926 30.5958 31.0598C30.3752 31.0254 30.2862 30.9987 30.2862 30.9987L28.4575 36.7133ZM34.3639 37.24C35.9669 37.24 37.6229 37.0106 39.008 36.2277L36.0557 31.0043C35.9689 31.0534 35.5129 31.24 34.3639 31.24V37.24ZM38.9607 36.2539C40.3593 35.4963 41.6839 34.0939 41.6839 31.984H35.6839C35.6839 31.8621 35.702 31.7163 35.7511 31.5606C35.8004 31.4047 35.8705 31.2714 35.945 31.166C36.0889 30.962 36.2026 30.9242 36.103 30.9781L38.9607 36.2539ZM41.6839 31.984C41.6839 29.8721 40.3231 28.4634 39.0776 27.6491L35.7941 32.6709C35.9894 32.7986 35.9727 32.8302 35.896 32.7181C35.8535 32.656 35.7972 32.556 35.7528 32.4193C35.7076 32.2802 35.6839 32.1313 35.6839 31.984H41.6839ZM39.0776 27.6491C37.7939 26.8097 36.349 26.344 34.7959 26.344V32.344C35.0987 32.344 35.4138 32.4223 35.7941 32.6709L39.0776 27.6491ZM63.3349 45.712L61.7705 48.2718L61.8236 48.3043L61.8779 48.3345L63.3349 45.712ZM61.4629 43.792L63.8927 42.0325L61.9527 39.3534L59.4752 41.545L61.4629 43.792ZM57.7189 45.568L56.939 42.6712L56.9318 42.6731L56.9247 42.675L57.7189 45.568ZM48.7429 44.656L46.713 46.865L46.744 46.8935L46.7758 46.9211L48.7429 44.656ZM47.6869 37.456L45.1907 35.7919L45.1823 35.8045L45.174 35.8172L47.6869 37.456ZM49.6549 35.44L47.9704 32.9576L47.9358 32.981L47.902 33.0054L49.6549 35.44ZM52.8229 34L52.0085 31.1127L51.9986 31.1154L51.9887 31.1183L52.8229 34ZM60.8389 33.952L60.144 36.8704L63.8389 37.7501V33.952H60.8389ZM59.5429 30.352L57.6579 32.6858L57.7067 32.7253L57.7572 32.7627L59.5429 30.352ZM52.4389 30.928L50.117 29.0283L50.0885 29.0632L50.061 29.0989L52.4389 30.928ZM49.2709 30.928L46.5876 32.2696L46.6467 32.3878L46.7159 32.5003L49.2709 30.928ZM50.0869 27.184L48.1573 24.8869L48.1341 24.9063L48.1114 24.9263L50.0869 27.184ZM52.9669 25.696L53.791 28.5806L53.8288 28.5698L53.8664 28.558L52.9669 25.696ZM59.3989 25.744L60.2609 22.8705L60.2609 22.8705L59.3989 25.744ZM62.5189 27.28L64.4837 25.0129L64.4391 24.9743L64.393 24.9374L62.5189 27.28ZM64.7269 30.208L61.9985 31.4553L62.0202 31.5029L62.0436 31.5496L64.7269 30.208ZM65.4469 35.68L62.4557 35.4499L62.4545 35.4652L62.4535 35.4804L65.4469 35.68ZM65.2549 39.136L62.285 38.7117L62.2784 38.7581L62.2732 38.8047L65.2549 39.136ZM65.5429 41.776L63.0467 43.4401L63.0467 43.4401L65.5429 41.776ZM66.5989 42.736L65.1105 45.3407L65.1433 45.3595L65.1766 45.3774L66.5989 42.736ZM66.9829 45.52L64.7158 43.5552L64.7104 43.5614L64.7051 43.5676L66.9829 45.52ZM52.1029 41.824L49.9816 43.9453L50.0208 43.9846L50.0615 44.0224L52.1029 41.824ZM56.9989 42.016L56.1097 39.1508L56.1097 39.1508L56.9989 42.016ZM60.3589 40.432L61.8744 43.021L62.8761 42.4347L63.2223 41.3268L60.3589 40.432ZM60.6469 38.272L63.6451 38.3754L63.6469 38.3237V38.272H60.6469ZM60.6949 37.456L63.6541 37.9492L64.1472 34.99L61.1881 34.4968L60.6949 37.456ZM65.8309 43.192C65.4264 43.192 65.1428 43.1616 64.9574 43.126C64.769 43.0897 64.7357 43.0583 64.7918 43.0895L61.8779 48.3345C63.1009 49.0139 64.5277 49.192 65.8309 49.192V43.192ZM64.8992 43.1522C64.8186 43.1029 64.4717 42.8321 63.8927 42.0325L59.033 45.5515C59.798 46.6079 60.6991 47.6171 61.7705 48.2718L64.8992 43.1522ZM59.4752 41.545C59.1293 41.851 58.3783 42.2836 56.939 42.6712L58.4988 48.4648C60.3874 47.9564 62.1325 47.205 63.4506 46.039L59.4752 41.545ZM56.9247 42.675C55.4506 43.0797 54.3229 43.24 53.4949 43.24V49.24C55.0348 49.24 56.7232 48.9523 58.513 48.461L56.9247 42.675ZM53.4949 43.24C52.1055 43.24 51.2703 42.8776 50.7099 42.3909L46.7758 46.9211C48.6474 48.5464 50.9802 49.24 53.4949 49.24V43.24ZM50.7728 42.447C50.376 42.0824 49.9669 41.4052 49.9669 39.904H43.9669C43.9669 42.5628 44.7418 45.0536 46.713 46.865L50.7728 42.447ZM49.9669 39.904C49.9669 39.5778 50.0442 39.3333 50.1997 39.0948L45.174 35.8172C44.3696 37.0507 43.9669 38.4382 43.9669 39.904H49.9669ZM50.183 39.1201C50.4823 38.6713 50.8797 38.2548 51.4078 37.8746L47.902 33.0054C46.83 33.7772 45.9155 34.7047 45.1907 35.7919L50.183 39.1201ZM51.3394 37.9224C51.9349 37.5183 52.6938 37.1605 53.657 36.8817L51.9887 31.1183C50.52 31.5435 49.1669 32.1456 47.9704 32.9576L51.3394 37.9224ZM53.6373 36.8873C54.6871 36.5912 55.544 36.472 56.2309 36.472V30.472C54.8698 30.472 53.4546 30.7048 52.0085 31.1127L53.6373 36.8873ZM56.2309 36.472C57.7805 36.472 59.076 36.6161 60.144 36.8704L61.5337 31.0336C59.9137 30.6479 58.1373 30.472 56.2309 30.472V36.472ZM63.8389 33.952V33.904H57.8389V33.952H63.8389ZM63.8389 33.904C63.8389 31.8078 63.327 29.4217 61.3286 27.9413L57.7572 32.7627C57.6404 32.6761 57.6466 32.6112 57.6966 32.7483C57.7569 32.9135 57.8389 33.2697 57.8389 33.904H63.8389ZM61.4279 28.0182C59.7919 26.6968 57.5978 26.344 55.5109 26.344V32.344C56.2708 32.344 56.814 32.4141 57.1833 32.5064C57.5522 32.5987 57.6658 32.6922 57.6579 32.6858L61.4279 28.0182ZM55.5109 26.344C53.2839 26.344 51.4535 27.3948 50.117 29.0283L54.7607 32.8277C55.1523 32.3492 55.3698 32.344 55.5109 32.344V26.344ZM50.061 29.0989C50.3884 28.6733 50.7501 28.548 50.8078 28.5301C50.8417 28.5197 50.8309 28.5266 50.7597 28.5353C50.6898 28.5439 50.5799 28.552 50.4229 28.552V34.552C51.5676 34.552 53.571 34.3766 54.8167 32.7571L50.061 29.0989ZM50.4229 28.552C50.5796 28.552 50.8629 28.5865 51.1797 28.7581C51.5029 28.9332 51.7117 29.1702 51.8258 29.3557L46.7159 32.5003C47.5491 33.8542 48.93 34.552 50.4229 34.552V28.552ZM51.9542 29.5864C51.9429 29.5638 51.9364 29.548 51.9329 29.5386C51.9294 29.5294 51.9287 29.5261 51.9293 29.5284C51.9299 29.5308 51.9314 29.5375 51.9327 29.5479C51.934 29.5584 51.9349 29.5706 51.9349 29.584H45.9349C45.9349 30.5503 46.1802 31.4548 46.5876 32.2696L51.9542 29.5864ZM51.9349 29.584C51.9349 29.5603 51.9372 29.555 51.9354 29.5628C51.9336 29.571 51.9303 29.5802 51.9274 29.5862C51.9194 29.6029 51.9383 29.5503 52.0624 29.4417L48.1114 24.9263C46.7652 26.1042 45.9349 27.6986 45.9349 29.584H51.9349ZM52.0165 29.4811C52.4581 29.1101 53.0299 28.798 53.791 28.5806L52.1427 22.8114C50.6638 23.234 49.3157 23.9139 48.1573 24.8869L52.0165 29.4811ZM53.8664 28.558C54.7577 28.2779 55.4911 28.168 56.0869 28.168V22.168C54.7626 22.168 53.4161 22.4101 52.0674 22.834L53.8664 28.558ZM56.0869 28.168C56.6256 28.168 57.4248 28.2839 58.5368 28.6175L60.2609 22.8705C58.813 22.4361 57.4042 22.168 56.0869 22.168V28.168ZM58.5368 28.6175C59.5552 28.923 60.2211 29.2837 60.6448 29.6226L64.393 24.9374C63.2166 23.9963 61.8026 23.333 60.2609 22.8705L58.5368 28.6175ZM60.5541 29.5471C61.2 30.1069 61.6708 30.7384 61.9985 31.4553L67.4553 28.9607C66.759 27.4376 65.7578 26.1171 64.4837 25.0129L60.5541 29.5471ZM62.0436 31.5496C62.3632 32.1889 62.5429 32.9244 62.5429 33.808H68.5429C68.5429 32.0676 68.1785 30.4031 67.4102 28.8664L62.0436 31.5496ZM62.5429 33.808C62.5429 34.1044 62.5184 34.6346 62.4557 35.4499L68.438 35.9101C68.5033 35.0614 68.5429 34.3436 68.5429 33.808H62.5429ZM62.4535 35.4804C62.3873 36.4735 62.3509 37.3308 62.3509 38.032H68.3509C68.3509 37.5172 68.3784 36.8065 68.4402 35.8796L62.4535 35.4804ZM62.3509 38.032C62.3509 38.1218 62.3389 38.3346 62.285 38.7117L68.2247 39.5603C68.2989 39.0414 68.3509 38.5182 68.3509 38.032H62.3509ZM62.2732 38.8047C62.2025 39.4414 62.1589 40.0409 62.1589 40.576H68.1589C68.1589 40.3431 68.1793 39.9826 68.2365 39.4673L62.2732 38.8047ZM62.1589 40.576C62.1589 41.6482 62.4995 42.6193 63.0467 43.4401L68.039 40.1119C68.0505 40.1291 68.0833 40.1834 68.1121 40.2737C68.1418 40.3664 68.1589 40.4707 68.1589 40.576H62.1589ZM63.0467 43.4401C63.5902 44.2553 64.3063 44.8812 65.1105 45.3407L68.0873 40.1313C68.0375 40.1028 68.0179 40.0851 68.0169 40.0842C68.0161 40.0835 68.0187 40.0858 68.0233 40.0911C68.028 40.0966 68.0335 40.1036 68.039 40.1119L63.0467 43.4401ZM65.1766 45.3774C65.2398 45.4114 65.2086 45.4028 65.13 45.3335C65.0512 45.264 64.8793 45.093 64.7316 44.7976L70.0982 42.1144C69.5662 41.0504 68.66 40.4386 68.0212 40.0946L65.1766 45.3774ZM64.7316 44.7976C64.6278 44.5901 64.6069 44.4102 64.6069 44.32H70.6069C70.6069 43.5898 70.4579 42.8339 70.0982 42.1144L64.7316 44.7976ZM64.6069 44.32C64.6069 43.8419 64.7564 43.5391 64.7892 43.4759C64.8276 43.4022 64.8272 43.4267 64.7158 43.5552L69.2499 47.4848C69.7409 46.9183 70.6069 45.7976 70.6069 44.32H64.6069ZM64.7051 43.5676C64.6641 43.6155 64.7208 43.5344 64.8953 43.4327C65.0888 43.3198 65.4128 43.192 65.8309 43.192V49.192C67.472 49.192 68.6134 48.2274 69.2606 47.4724L64.7051 43.5676ZM56.2309 34.024C54.5929 34.024 53.0166 34.341 51.5772 35.0607L54.2605 40.4273C54.7411 40.187 55.3729 40.024 56.2309 40.024V34.024ZM51.5772 35.0607C50.6202 35.5392 49.7915 36.2668 49.2281 37.2622C48.6771 38.2357 48.4789 39.2888 48.4789 40.288H54.4789C54.4789 40.0712 54.5207 40.0923 54.4496 40.2178C54.4155 40.2782 54.3704 40.3343 54.3227 40.3783C54.2768 40.4207 54.2486 40.4332 54.2605 40.4273L51.5772 35.0607ZM48.4789 40.288C48.4789 41.6619 48.9822 42.946 49.9816 43.9453L54.2242 39.7027C54.2811 39.7596 54.3578 39.8599 54.4143 39.9989C54.4699 40.1358 54.4789 40.2438 54.4789 40.288H48.4789ZM50.0615 44.0224C50.9503 44.8477 52.1311 45.448 53.5429 45.448V39.448C53.7063 39.448 53.8636 39.4838 53.9917 39.5393C54.1116 39.5913 54.16 39.6403 54.1442 39.6256L50.0615 44.0224ZM53.5429 45.448C55.1057 45.448 56.58 45.2872 57.8881 44.8812L56.1097 39.1508C55.5618 39.3208 54.7321 39.448 53.5429 39.448V45.448ZM57.8881 44.8812C59.1212 44.4985 60.4623 43.8476 61.8744 43.021L58.8433 37.843C57.6314 38.5524 56.7326 38.9575 56.1097 39.1508L57.8881 44.8812ZM63.2223 41.3268C63.5002 40.4377 63.6095 39.4069 63.6451 38.3754L57.6487 38.1686C57.6202 38.9931 57.5376 39.4023 57.4954 39.5372L63.2223 41.3268ZM63.6469 38.272C63.6469 38.1388 63.65 38.0435 63.6537 37.9802C63.6577 37.912 63.6609 37.9081 63.6541 37.9492L57.7357 36.9628C57.6631 37.3985 57.6469 37.8641 57.6469 38.272H63.6469ZM61.1881 34.4968C59.3567 34.1916 57.6952 34.024 56.2309 34.024V40.024C57.2625 40.024 58.577 40.1444 60.2017 40.4152L61.1881 34.4968ZM101.504 44.32L98.8594 45.7367L98.8885 45.7909L98.9198 45.844L101.504 44.32ZM100.592 41.344L97.6113 41.6846L97.6124 41.6945L100.592 41.344ZM99.6319 31.888L102.444 30.8418L102.444 30.8418L99.6319 31.888ZM94.6399 30.4L96.2042 32.9598L96.2231 32.9483L96.2419 32.9365L94.6399 30.4ZM93.3439 31.744L90.6925 30.3403L90.6865 30.3517L90.6806 30.363L93.3439 31.744ZM92.4319 34.576L95.3936 35.0537L95.3948 35.0464L95.3959 35.0391L92.4319 34.576ZM92.3359 40.576H95.3359V40.4098L95.3175 40.2447L92.3359 40.576ZM92.3839 41.824L89.3885 41.9904L89.3936 42.0827L89.4044 42.1745L92.3839 41.824ZM87.6799 43.408H84.6799V43.4855L84.6839 43.563L87.6799 43.408ZM87.7279 41.296L90.5739 42.2447L90.7279 41.7828V41.296H87.7279ZM87.5839 35.872L90.5723 35.6083L90.5723 35.6083L87.5839 35.872ZM87.2479 33.424L90.1681 32.7369L90.156 32.6855L90.1422 32.6346L87.2479 33.424ZM86.0959 30.976L83.7278 32.8178L83.7589 32.8577L83.7912 32.8966L86.0959 30.976ZM80.5279 31.936L78.0823 30.1984L78.0361 30.2634L77.9934 30.3308L80.5279 31.936ZM79.3279 35.44L76.3567 35.0254L76.3504 35.07L76.3456 35.1147L79.3279 35.44ZM78.8959 39.616L75.909 39.336L75.9049 39.3794L75.9021 39.4229L78.8959 39.616ZM78.3199 45.328L75.6974 43.8711L75.6657 43.9281L75.6366 43.9864L78.3199 45.328ZM74.7199 45.712L73.2741 48.3406L73.3509 48.3829L73.4301 48.4206L74.7199 45.712ZM73.9519 42.496L76.8875 43.114L76.9033 43.0393L76.9152 42.9639L73.9519 42.496ZM73.8079 30.496L71.1015 31.7904L71.1359 31.8624L71.1742 31.9326L73.8079 30.496ZM71.7919 29.584L70.7666 26.7646L70.7219 26.7809L70.6777 26.7986L71.7919 29.584ZM69.9199 29.2L67.6152 31.1206L67.6606 31.175L67.7084 31.2272L69.9199 29.2ZM70.5919 26.224L72.3259 28.6721L72.3354 28.6654L72.3448 28.6586L70.5919 26.224ZM76.1119 26.464L74.1242 28.711L74.1242 28.711L76.1119 26.464ZM78.0319 29.536L75.1928 30.5054L77.3323 36.771L80.6326 31.0314L78.0319 29.536ZM81.0079 26.464L82.5802 29.019L82.6037 29.0045L82.6269 28.9896L81.0079 26.464ZM87.4879 25.648L86.2695 28.3894L86.3589 28.4292L86.4508 28.463L87.4879 25.648ZM88.9759 26.656L86.6981 28.6084L86.734 28.6503L86.7715 28.6908L88.9759 26.656ZM90.4639 28.576L88.0105 30.3025L90.338 33.6101L92.8279 30.4229L90.4639 28.576ZM93.5359 26.176L92.3048 23.4402L92.2917 23.4461L92.2787 23.4521L93.5359 26.176ZM101.792 27.28L99.6445 29.375L99.6575 29.3882L99.6706 29.4013L101.792 27.28ZM104.384 31.744L107.288 30.9911L107.284 30.9778L104.384 31.744ZM104.72 36.736H101.72V36.8393L101.727 36.9424L104.72 36.736ZM104.912 39.52L101.919 39.7264L101.922 39.7668L101.926 39.8071L104.912 39.52ZM106.544 42.544L105.48 45.349L105.587 45.3897L105.697 45.4221L106.544 42.544ZM107.6 45.232L109.264 47.7282L109.456 47.5998L109.627 47.4435L107.6 45.232ZM106.4 45.856L105.197 43.1075L105.197 43.1075L106.4 45.856ZM104.148 42.9033C103.859 42.3636 103.659 41.7375 103.571 40.9935L97.6124 41.6945C97.7809 43.1265 98.1886 44.4844 98.8594 45.7367L104.148 42.9033ZM103.572 41.0034C103.463 40.049 103.4 38.6435 103.4 36.736H97.3999C97.3999 38.7325 97.4643 40.399 97.6113 41.6846L103.572 41.0034ZM103.4 36.736C103.4 34.6132 103.108 32.6279 102.444 30.8418L96.8202 32.9342C97.1796 33.9001 97.3999 35.1468 97.3999 36.736H103.4ZM102.444 30.8418C102.002 29.6545 101.245 28.5767 100.094 27.8264C98.9624 27.0895 97.6896 26.824 96.4639 26.824V32.824C96.8382 32.824 96.8934 32.9025 96.8182 32.8536C96.7854 32.8322 96.7635 32.8082 96.757 32.7998C96.7534 32.795 96.7814 32.8298 96.8202 32.9342L102.444 30.8418ZM96.4639 26.824C95.1922 26.824 94.0365 27.2328 93.0379 27.8635L96.2419 32.9365C96.3552 32.8649 96.4261 32.838 96.4553 32.8287C96.4813 32.8205 96.481 32.824 96.4639 32.824V26.824ZM93.0755 27.8402C92.0858 28.445 91.2565 29.2751 90.6925 30.3403L95.9952 33.1477C96.0073 33.1249 96.042 33.059 96.2042 32.9598L93.0755 27.8402ZM90.6806 30.363C90.074 31.5329 89.6746 32.7895 89.4678 34.1129L95.3959 35.0391C95.5091 34.3144 95.7177 33.6831 96.0071 33.1249L90.6806 30.363ZM89.4702 34.0983C89.2783 35.2876 89.1919 36.6055 89.1919 38.032H95.1919C95.1919 36.8345 95.2654 35.8484 95.3936 35.0537L89.4702 34.0983ZM89.1919 38.032C89.1919 38.9795 89.2465 39.9382 89.3542 40.9073L95.3175 40.2447C95.2332 39.4858 95.1919 38.7485 95.1919 38.032H89.1919ZM89.3359 40.576C89.3359 40.922 89.3562 41.4099 89.3885 41.9904L95.3793 41.6576C95.3475 41.0861 95.3359 40.742 95.3359 40.576H89.3359ZM89.4044 42.1745C89.4576 42.6267 89.4799 43.0035 89.4799 43.312H95.4799C95.4799 42.7245 95.4381 42.1093 95.3633 41.4735L89.4044 42.1745ZM89.4799 43.312C89.4799 43.6266 89.4514 43.8086 89.4324 43.8903C89.4134 43.9715 89.4176 43.8954 89.5182 43.7516C89.6322 43.5887 89.8164 43.4176 90.0561 43.3034C90.2808 43.1964 90.4433 43.192 90.4639 43.192V49.192C91.9487 49.192 93.4472 48.6014 94.4336 47.1924C95.2834 45.9784 95.4799 44.53 95.4799 43.312H89.4799ZM90.4639 43.192C90.2809 43.192 90.2352 43.1672 90.2789 43.1822C90.3027 43.1905 90.3467 43.2085 90.4021 43.2424C90.4583 43.2768 90.5158 43.3213 90.5692 43.3747C90.6224 43.4279 90.6613 43.4797 90.6878 43.5224C90.7137 43.5642 90.7233 43.5899 90.7235 43.5904C90.7235 43.5905 90.7212 43.5842 90.7175 43.5706C90.7138 43.557 90.7089 43.5366 90.7037 43.5085C90.693 43.4517 90.6818 43.368 90.6759 43.253L84.6839 43.563C84.7543 44.9251 85.155 46.4457 86.3266 47.6173C87.5242 48.8149 89.068 49.192 90.4639 49.192V43.192ZM90.6799 43.408C90.6799 42.759 90.6839 42.2818 90.6911 41.9642C90.6948 41.8021 90.6988 41.7069 90.7015 41.6617C90.703 41.6369 90.7025 41.6545 90.6977 41.6971C90.6953 41.7184 90.6893 41.7688 90.6774 41.8366C90.6692 41.8838 90.6409 42.0436 90.5739 42.2447L84.8818 40.3473C84.767 40.6917 84.7383 40.9997 84.7356 41.0239C84.7238 41.1285 84.7168 41.2271 84.7123 41.3023C84.703 41.4571 84.697 41.6379 84.6927 41.8278C84.6839 42.2142 84.6799 42.745 84.6799 43.408H90.6799ZM90.7279 41.296V39.232H84.7279V41.296H90.7279ZM90.7279 39.232C90.7279 37.9967 90.6764 36.7886 90.5723 35.6083L84.5955 36.1357C84.6833 37.1314 84.7279 38.1633 84.7279 39.232H90.7279ZM90.5723 35.6083C90.4732 34.4851 90.3467 33.496 90.1681 32.7369L84.3276 34.1111C84.405 34.44 84.5026 35.0829 84.5955 36.1357L90.5723 35.6083ZM90.1422 32.6346C89.7889 31.3392 89.2525 30.0777 88.4005 29.0554L83.7912 32.8966C83.8993 33.0262 84.1309 33.3968 84.3536 34.2134L90.1422 32.6346ZM88.4639 29.1342C87.2599 27.5861 85.4976 27.112 83.9359 27.112V33.112C84.1522 33.112 84.1838 33.1447 84.1057 33.1134C84.0633 33.0965 83.9986 33.0645 83.9248 33.0098C83.8501 32.9546 83.7828 32.8885 83.7278 32.8178L88.4639 29.1342ZM83.9359 27.112C81.4903 27.112 79.4696 28.2459 78.0823 30.1984L82.9734 33.6736C83.3141 33.1941 83.5655 33.112 83.9359 33.112V27.112ZM77.9934 30.3308C77.1116 31.7232 76.5949 33.3181 76.3567 35.0254L82.2991 35.8546C82.4449 34.8099 82.7281 34.0688 83.0623 33.5412L77.9934 30.3308ZM76.3456 35.1147C76.1529 36.8807 76.007 38.2899 75.909 39.336L81.8828 39.896C81.9767 38.8941 82.1188 37.5193 82.3102 35.7653L76.3456 35.1147ZM75.9021 39.4229C75.8329 40.4957 75.7999 41.7146 75.7999 43.072H81.7999C81.7999 41.8054 81.8309 40.7203 81.8897 39.8091L75.9021 39.4229ZM75.7999 43.072C75.7999 43.6869 75.6892 43.8859 75.6974 43.8711L80.9423 46.7849C81.5906 45.6181 81.7999 44.3131 81.7999 43.072H75.7999ZM75.6366 43.9864C75.7707 43.7181 76.0113 43.4627 76.3118 43.3081C76.5703 43.1752 76.7259 43.192 76.6399 43.192V49.192C78.2157 49.192 80.0524 48.5711 81.0032 46.6696L75.6366 43.9864ZM76.6399 43.192C76.5668 43.192 76.3673 43.1737 76.0097 43.0034L73.4301 48.4206C74.4164 48.8903 75.497 49.192 76.6399 49.192V43.192ZM76.1656 43.0834C76.1375 43.0679 76.2983 43.1486 76.4695 43.3968C76.6629 43.6772 76.7599 44.0138 76.7599 44.32H70.7599C70.7599 46.2949 71.9761 47.6267 73.2741 48.3406L76.1656 43.0834ZM76.7599 44.32C76.7599 43.9242 76.8014 43.5233 76.8875 43.114L71.0162 41.878C70.8464 42.6847 70.7599 43.4998 70.7599 44.32H76.7599ZM76.9152 42.9639C77.2443 40.8791 77.3839 37.3975 77.3839 32.704H71.3839C71.3839 37.4185 71.2354 40.4649 70.9886 42.0281L76.9152 42.9639ZM77.3839 32.704C77.3839 31.4115 77.0549 30.1839 76.4416 29.0594L71.1742 31.9326C71.3288 32.2161 71.3839 32.4605 71.3839 32.704H77.3839ZM76.5143 29.2016C75.9881 28.1015 74.7772 26.392 72.5119 26.392V32.392C72.2712 32.392 72.0243 32.347 71.7913 32.2561C71.5624 32.1669 71.3909 32.0509 71.2745 31.9517C71.0621 31.7708 71.0336 31.6485 71.1015 31.7904L76.5143 29.2016ZM72.5119 26.392C72.045 26.392 71.6457 26.4925 71.4629 26.5413C71.2266 26.6043 70.9885 26.6839 70.7666 26.7646L72.8171 32.4034C72.8785 32.3811 72.9257 32.3649 72.9604 32.3537C72.9959 32.3421 73.011 32.3381 73.0089 32.3387C73.0073 32.3391 72.9984 32.3415 72.9831 32.3449C72.9681 32.3483 72.9429 32.3537 72.9089 32.3596C72.8755 32.3654 72.8265 32.373 72.7647 32.3793C72.7042 32.3856 72.6178 32.392 72.5119 32.392V26.392ZM70.6777 26.7986C70.5899 26.8337 70.5683 26.8374 70.5989 26.8293C70.6163 26.8246 70.6627 26.8129 70.7329 26.8017C70.8005 26.7909 70.9179 26.776 71.0719 26.776V32.776C71.8475 32.776 72.5461 32.5134 72.906 32.3694L70.6777 26.7986ZM71.0719 26.776C71.3448 26.776 71.6027 26.8433 71.8135 26.9487C72.0107 27.0473 72.1111 27.1508 72.1313 27.1728L67.7084 31.2272C68.4752 32.0637 69.612 32.776 71.0719 32.776V26.776ZM72.2245 27.2794C72.159 27.2008 72.1879 27.2199 72.2432 27.3304C72.2936 27.4312 72.4399 27.7548 72.4399 28.24H66.4399C66.4399 29.612 67.2127 30.6375 67.6152 31.1206L72.2245 27.2794ZM72.4399 28.24C72.4399 28.2823 72.4345 28.3455 72.4147 28.4213C72.3948 28.4975 72.3654 28.567 72.3326 28.6244C72.2661 28.7408 72.223 28.745 72.3259 28.6721L68.8578 23.7759C67.4559 24.7689 66.4399 26.286 66.4399 28.24H72.4399ZM72.3448 28.6586C72.709 28.3964 72.9393 28.36 73.0879 28.36V22.36C71.5084 22.36 70.0747 22.8996 68.839 23.7894L72.3448 28.6586ZM73.0879 28.36C73.5921 28.36 73.8787 28.4939 74.1242 28.711L78.0996 24.217C76.681 22.9621 74.9517 22.36 73.0879 22.36V28.36ZM74.1242 28.711C74.4809 29.0266 74.8718 29.5653 75.1928 30.5054L80.8709 28.5666C80.2959 26.8827 79.4069 25.3734 78.0996 24.217L74.1242 28.711ZM80.6326 31.0314C81.1214 30.1813 81.7613 29.5229 82.5802 29.019L79.4356 23.909C77.7585 24.9411 76.4144 26.3307 75.4312 28.0406L80.6326 31.0314ZM82.6269 28.9896C83.3736 28.511 84.1999 28.264 85.1839 28.264V22.264C83.0958 22.264 81.1382 22.817 79.3889 23.9384L82.6269 28.9896ZM85.1839 28.264C85.9225 28.264 86.2242 28.3693 86.2695 28.3894L88.7063 22.9066C87.5995 22.4147 86.3653 22.264 85.1839 22.264V28.264ZM86.4508 28.463C86.6267 28.5278 86.6792 28.5864 86.6981 28.6084L91.2536 24.7036C90.5045 23.8296 89.5651 23.2162 88.525 22.833L86.4508 28.463ZM86.7715 28.6908C87.0196 28.9596 87.4255 29.4712 88.0105 30.3025L92.9173 26.8495C92.2863 25.9528 91.7002 25.1844 91.1803 24.6212L86.7715 28.6908ZM92.8279 30.4229C93.317 29.7969 93.9528 29.2877 94.7931 28.8999L92.2787 23.4521C90.623 24.2163 89.2107 25.3071 88.0998 26.7291L92.8279 30.4229ZM94.767 28.9118C95.6775 28.502 96.5712 28.312 97.4719 28.312V22.312C95.6846 22.312 93.9543 22.698 92.3048 23.4402L94.767 28.9118ZM97.4719 28.312C98.1435 28.312 98.8395 28.5498 99.6445 29.375L103.939 25.185C102.184 23.3862 100 22.312 97.4719 22.312V28.312ZM99.6706 29.4013C100.588 30.3189 101.175 31.3437 101.483 32.5102L107.284 30.9778C106.697 28.7523 105.556 26.8011 103.913 25.1587L99.6706 29.4013ZM101.48 32.4969C101.594 32.9368 101.72 34.2295 101.72 36.736H107.72C107.72 34.3145 107.622 32.2792 107.288 30.9911L101.48 32.4969ZM101.727 36.9424L101.919 39.7264L107.905 39.3136L107.713 36.5296L101.727 36.9424ZM101.926 39.8071C102.115 41.7811 102.882 44.3636 105.48 45.349L107.608 39.739C107.739 39.7887 107.86 39.8651 107.956 39.9535C108.047 40.0376 108.081 40.1011 108.08 40.0992C108.077 40.0939 108.044 40.0304 108.005 39.8807C107.966 39.7316 107.926 39.52 107.898 39.2329L101.926 39.8071ZM105.697 45.4221C106.15 45.5552 106.258 45.6294 106.191 45.5884C106.154 45.5653 105.944 45.4344 105.721 45.1517C105.475 44.8412 105.176 44.2916 105.176 43.552H111.176C111.176 41.7102 109.79 40.7587 109.344 40.4836C108.734 40.1066 108.026 39.8528 107.39 39.6659L105.697 45.4221ZM105.176 43.552C105.176 43.6981 105.156 43.6856 105.194 43.575C105.238 43.4465 105.347 43.2271 105.573 43.0205L109.627 47.4435C110.876 46.2988 111.176 44.7586 111.176 43.552H105.176ZM105.936 42.7358C105.855 42.7897 105.633 42.9167 105.197 43.1075L107.602 48.6045C108.19 48.3473 108.769 48.0583 109.264 47.7282L105.936 42.7358ZM105.197 43.1075C105.116 43.1432 105.05 43.1693 105 43.188C104.949 43.2068 104.918 43.2159 104.907 43.2191C104.895 43.2225 104.912 43.2169 104.955 43.21C104.977 43.2064 105.008 43.202 105.048 43.1985C105.088 43.1949 105.139 43.192 105.2 43.192V49.192C106.131 49.192 107.001 48.8676 107.602 48.6045L105.197 43.1075ZM105.2 43.192C104.293 43.192 104.172 42.9392 104.088 42.796L98.9198 45.844C100.307 48.1968 102.651 49.192 105.2 49.192V43.192ZM143.957 16.624L141.426 15.0134L141.416 15.0291L141.406 15.0449L143.957 16.624ZM147.893 16L146.551 18.6833L146.551 18.6833L147.893 16ZM148.565 22.96L151.56 23.1264L151.56 23.1219L148.565 22.96ZM148.565 35.152L145.567 35.2823L145.568 35.2882L148.565 35.152ZM148.709 43.696L145.714 43.5089L145.709 43.6023V43.696H148.709ZM147.845 45.232L149.829 47.4815L149.838 47.4742L147.845 45.232ZM143.717 45.664L142.294 48.3054L142.412 48.3688L142.535 48.4214L143.717 45.664ZM142.853 44.944L145.396 43.354L145.292 43.1872L145.167 43.0355L142.853 44.944ZM136.277 35.632L138.784 33.9848L138.78 33.9792L136.277 35.632ZM128.357 24.4L130.71 22.5401L124.218 14.3238L125.375 24.7313L128.357 24.4ZM128.645 38.608L125.646 38.5269L125.645 38.5469L125.645 38.5669L128.645 38.608ZM128.453 43.216L131.424 43.6259L131.426 43.615L131.427 43.604L128.453 43.216ZM127.589 45.376L125.331 43.4005L125.326 43.4058L125.321 43.4112L127.589 45.376ZM123.989 45.52L121.611 47.3491L121.69 47.4517L121.777 47.5472L123.989 45.52ZM123.413 43.408L120.413 43.4811L120.415 43.5412L120.419 43.6011L123.413 43.408ZM123.653 37.504L120.661 37.2739L120.66 37.2851L123.653 37.504ZM123.797 35.344L126.791 35.5311L126.791 35.5311L123.797 35.344ZM123.557 25.024L120.562 25.2073L120.564 25.2333L120.566 25.2592L123.557 25.024ZM124.085 16.288L122.328 13.856L122.295 13.88L122.262 13.9049L124.085 16.288ZM128.069 16.144L130.415 14.2752L129.966 13.7112L129.31 13.4129L128.069 16.144ZM139.253 31.6L141.765 29.9601L141.745 29.9305L141.725 29.9014L139.253 31.6ZM143.765 38.512L141.252 40.1519L146.195 47.7231L146.759 38.6991L143.765 38.512ZM143.717 31.072L146.715 30.9704L146.715 30.9704L143.717 31.072ZM143.573 27.232L146.569 27.0893L146.569 27.0776L143.573 27.232ZM146.333 19.024C146.333 18.5553 146.433 18.3234 146.507 18.2031L141.406 15.0449C140.648 16.2686 140.333 17.6367 140.333 19.024H146.333ZM146.487 18.2346C146.469 18.2631 146.381 18.38 146.203 18.4755C146.029 18.5686 145.908 18.568 145.925 18.568V12.568C144.079 12.568 142.447 13.4076 141.426 15.0134L146.487 18.2346ZM145.925 18.568C146.262 18.568 146.447 18.6315 146.551 18.6833L149.234 13.3167C148.186 12.7925 147.059 12.568 145.925 12.568V18.568ZM146.551 18.6833C146.407 18.6114 146.16 18.439 145.968 18.1195C145.781 17.8075 145.757 17.5382 145.757 17.44H151.757C151.757 16.6697 151.588 15.8245 151.113 15.0325C150.633 14.233 149.954 13.6766 149.234 13.3167L146.551 18.6833ZM145.757 17.44C145.757 18.6714 145.696 20.4485 145.569 22.7981L151.56 23.1219C151.689 20.7355 151.757 18.8326 151.757 17.44H145.757ZM145.569 22.7936C145.441 25.1079 145.373 26.8887 145.373 28.096H151.373C151.373 27.0633 151.432 25.4201 151.56 23.1264L145.569 22.7936ZM145.373 28.096C145.373 29.9186 145.439 32.3196 145.567 35.2823L151.562 35.0217C151.434 32.0964 151.373 29.7934 151.373 28.096H145.373ZM145.568 35.2882C145.695 38.098 145.757 40.1045 145.757 41.344H151.757C151.757 39.9595 151.69 37.838 151.561 35.0158L145.568 35.2882ZM145.757 41.344C145.757 42.3883 145.74 43.0949 145.714 43.5089L151.703 43.8831C151.741 43.2731 151.757 42.4117 151.757 41.344H145.757ZM145.709 43.696C145.709 43.365 145.807 43.1193 145.878 42.9932C145.939 42.885 145.964 42.8897 145.851 42.9898L149.838 47.4742C150.729 46.6821 151.709 45.4206 151.709 43.696H145.709ZM145.86 42.9825C145.989 42.8685 146.067 42.8618 145.984 42.8854C145.892 42.9112 145.68 42.952 145.301 42.952V48.952C146.776 48.952 148.494 48.6598 149.829 47.4815L145.86 42.9825ZM145.301 42.952C145.001 42.952 144.893 42.9042 144.898 42.9066L142.535 48.4214C143.436 48.8078 144.384 48.952 145.301 48.952V42.952ZM145.139 43.0226C145.064 42.9825 145.065 42.9745 145.109 43.0113C145.153 43.0478 145.273 43.1561 145.396 43.354L140.309 46.534C140.859 47.414 141.655 47.9613 142.294 48.3054L145.139 43.0226ZM145.167 43.0355C143.774 41.3465 141.658 38.36 138.784 33.9848L133.769 37.2792C136.655 41.672 138.923 44.8935 140.538 46.8525L145.167 43.0355ZM138.78 33.9792C135.531 29.0575 132.837 25.2312 130.71 22.5401L126.003 26.2599C127.972 28.7528 130.558 32.4145 133.773 37.2848L138.78 33.9792ZM125.375 24.7313C125.615 26.8894 125.741 29.5875 125.741 32.848H131.741C131.741 29.4525 131.61 26.5186 131.338 24.0687L125.375 24.7313ZM125.741 32.848C125.741 34.2818 125.709 36.1719 125.646 38.5269L131.643 38.6891C131.708 36.3081 131.741 34.3582 131.741 32.848H125.741ZM125.645 38.5669C125.612 40.9384 125.547 42.2955 125.478 42.828L131.427 43.604C131.55 42.6645 131.613 40.9496 131.644 38.6491L125.645 38.5669ZM125.481 42.8061C125.403 43.3654 125.273 43.4666 125.331 43.4005L129.846 47.3515C130.8 46.2614 131.246 44.9226 131.424 43.6259L125.481 42.8061ZM125.321 43.4112C125.401 43.3197 125.488 43.2455 125.573 43.1892C125.656 43.1339 125.725 43.1046 125.763 43.0908C125.832 43.0663 125.79 43.096 125.573 43.096V49.096C126.961 49.096 128.647 48.735 129.856 47.3408L125.321 43.4112ZM125.573 43.096C125.485 43.096 125.538 43.0832 125.674 43.1326C125.827 43.1882 126.025 43.3017 126.2 43.4928L121.777 47.5472C122.877 48.7466 124.336 49.096 125.573 49.096V43.096ZM126.366 43.6909C126.446 43.7947 126.486 43.8747 126.501 43.9067C126.516 43.9387 126.512 43.9376 126.499 43.8906C126.471 43.7891 126.43 43.5763 126.406 43.2149L120.419 43.6011C120.492 44.7364 120.725 46.1984 121.611 47.3491L126.366 43.6909ZM126.412 43.3349C126.383 42.1746 126.454 40.3257 126.645 37.7229L120.66 37.2851C120.467 39.9303 120.378 42.0174 120.413 43.4811L126.412 43.3349ZM126.644 37.7341C126.677 37.2943 126.727 36.5548 126.791 35.5311L120.802 35.1569C120.738 36.1812 120.692 36.8817 120.661 37.2739L126.644 37.7341ZM126.791 35.5311C126.858 34.4612 126.893 33.4849 126.893 32.608H120.893C120.893 33.3311 120.863 34.1788 120.802 35.1569L126.791 35.5311ZM126.893 32.608C126.893 30.3027 126.776 27.6937 126.547 24.7888L120.566 25.2592C120.785 28.0503 120.893 30.4973 120.893 32.608H126.893ZM126.551 24.8407C126.36 21.7151 126.269 19.4713 126.269 18.064H120.269C120.269 19.6647 120.369 22.0609 120.562 25.2073L126.551 24.8407ZM126.269 18.064C126.269 18.0359 126.272 18.1356 126.199 18.2965C126.12 18.4684 126.003 18.5973 125.907 18.6711L122.262 13.9049C120.879 14.963 120.269 16.4914 120.269 18.064H126.269ZM125.841 18.72C125.886 18.6872 125.923 18.664 126.053 18.664V12.664C124.71 12.664 123.435 13.0568 122.328 13.856L125.841 18.72ZM126.053 18.664C126.185 18.664 126.433 18.6961 126.827 18.8751L129.31 13.4129C128.296 12.9519 127.2 12.664 126.053 12.664V18.664ZM125.722 18.0128C128.407 21.3849 132.087 26.4677 136.78 33.2986L141.725 29.9014C137.01 23.0363 133.234 17.8151 130.415 14.2752L125.722 18.0128ZM136.74 33.2399L141.252 40.1519L146.277 36.8721L141.765 29.9601L136.74 33.2399ZM146.759 38.6991C146.796 38.0941 146.812 37.3013 146.812 36.352H140.812C140.812 37.2587 140.797 37.9059 140.77 38.3249L146.759 38.6991ZM146.812 36.352C146.812 34.6813 146.78 32.8871 146.715 30.9704L140.718 31.1736C140.781 33.0329 140.812 34.7587 140.812 36.352H146.812ZM146.715 30.9704C146.651 29.0848 146.602 27.7849 146.569 27.0893L140.576 27.3747C140.607 28.0231 140.654 29.2832 140.718 31.1736L146.715 30.9704ZM146.569 27.0776C146.41 24.0101 146.333 21.3275 146.333 19.024H140.333C140.333 21.4565 140.415 24.2458 140.576 27.3864L146.569 27.0776ZM177.259 22.912L175.385 25.2546L175.422 25.2839L175.459 25.312L177.259 22.912ZM175.723 21.808L173.937 24.2187L173.967 24.2404L173.997 24.2614L175.723 21.808ZM173.227 20.464L172.211 23.2867L172.262 23.3049L172.313 23.3213L173.227 20.464ZM166.747 20.56L167.492 23.466L167.527 23.4571L167.562 23.4473L166.747 20.56ZM163.531 22.048L165.303 24.4691L165.317 24.4586L165.331 24.448L163.531 22.048ZM161.035 37.216L158.491 38.806L158.499 38.8181L158.506 38.8301L161.035 37.216ZM164.731 40.672L163.322 43.3206L163.322 43.3206L164.731 40.672ZM173.563 41.152L174.69 43.9322L174.722 43.9193L174.754 43.9056L173.563 41.152ZM176.395 39.184L178.647 41.1659L178.704 41.101L178.758 41.0329L176.395 39.184ZM177.547 36.736L180.481 37.3646L180.483 37.3542L180.485 37.3438L177.547 36.736ZM177.067 33.04L176.34 35.9504L176.34 35.9504L177.067 33.04ZM172.315 32.944L172.445 35.9412L172.459 35.9406L172.473 35.9399L172.315 32.944ZM170.107 33.04V36.04H170.172L170.237 36.0372L170.107 33.04ZM167.899 32.512L169.529 29.9933L169.529 29.9933L167.899 32.512ZM174.763 29.056L174.594 32.0512L174.633 32.0534L174.672 32.0546L174.763 29.056ZM181.771 30.208L179.601 32.2794L179.625 32.3047L179.65 32.3293L181.771 30.208ZM182.011 37.696L184.857 38.6447L184.86 38.6365L184.863 38.6282L182.011 37.696ZM179.755 42.112L182.155 43.912L182.166 43.8978L182.176 43.8835L179.755 42.112ZM175.579 45.04L176.572 47.8708L176.594 47.8631L176.616 47.855L175.579 45.04ZM163.819 45.088L162.855 47.9289L162.863 47.9315L162.87 47.934L163.819 45.088ZM159.355 42.544L157.306 44.7356L157.316 44.7443L157.325 44.753L159.355 42.544ZM155.851 37.648L153.098 38.8408L153.111 38.8687L153.123 38.8964L155.851 37.648ZM156.379 23.872L159.102 25.1313L159.105 25.1249L159.108 25.1185L156.379 23.872ZM161.419 17.824L163.075 20.3258L163.083 20.3201L161.419 17.824ZM165.595 16.24L164.939 13.3126L164.928 13.3151L165.595 16.24ZM179.947 19.6L182.443 17.9359L182.425 17.9085L182.406 17.8816L179.947 19.6ZM177.835 23.152L177.108 26.0624L177.108 26.0624L177.835 23.152ZM179.133 20.5694C178.882 20.3685 178.273 19.934 177.45 19.3546L173.997 24.2614C174.425 24.5629 174.76 24.8005 175.004 24.976C175.127 25.064 175.221 25.133 175.292 25.1847C175.369 25.2421 175.393 25.2607 175.385 25.2546L179.133 20.5694ZM177.509 19.3973C176.451 18.6138 175.328 17.9864 174.141 17.6067L172.313 23.3213C172.726 23.4536 173.267 23.7222 173.937 24.2187L177.509 19.3973ZM174.243 17.6413C173.1 17.2298 171.907 17.032 170.683 17.032V23.032C171.252 23.032 171.754 23.1222 172.211 23.2867L174.243 17.6413ZM170.683 17.032C169.049 17.032 167.461 17.2415 165.933 17.6726L167.562 23.4473C168.529 23.1745 169.566 23.032 170.683 23.032V17.032ZM166.002 17.654C164.429 18.0572 162.986 18.7069 161.731 19.648L165.331 24.448C165.868 24.0451 166.569 23.7028 167.492 23.466L166.002 17.654ZM161.76 19.6269C158.07 22.3267 156.595 26.7252 156.595 31.888H162.595C162.595 27.7708 163.744 25.6093 165.303 24.4691L161.76 19.6269ZM156.595 31.888C156.595 34.4007 157.2 36.7405 158.491 38.806L163.579 35.626C162.95 34.6195 162.595 33.4073 162.595 31.888H156.595ZM158.506 38.8301C159.731 40.7482 161.34 42.2663 163.322 43.3206L166.14 38.0234C165.114 37.4777 164.26 36.6918 163.564 35.6019L158.506 38.8301ZM163.322 43.3206C165.231 44.336 167.264 44.872 169.387 44.872V38.872C168.31 38.872 167.239 38.608 166.14 38.0234L163.322 43.3206ZM169.387 44.872C171.279 44.872 173.07 44.5889 174.69 43.9322L172.436 38.3718C171.688 38.6751 170.695 38.872 169.387 38.872V44.872ZM174.754 43.9056C176.26 43.2542 177.596 42.3608 178.647 41.1659L174.143 37.2021C173.787 37.6072 173.234 38.0258 172.372 38.3984L174.754 43.9056ZM178.758 41.0329C179.608 39.9461 180.191 38.7145 180.481 37.3646L174.614 36.1074C174.519 36.5495 174.334 36.9499 174.033 37.3351L178.758 41.0329ZM180.485 37.3438C180.724 36.189 180.835 34.9748 180.835 33.712H174.835C174.835 34.6252 174.754 35.427 174.609 36.1282L180.485 37.3438ZM180.835 33.712C180.835 32.627 180.351 31.6872 179.619 31.0463C178.988 30.4948 178.282 30.2514 177.795 30.1296L176.34 35.9504C176.33 35.9481 176.261 35.9305 176.153 35.8812C176.047 35.8324 175.867 35.7359 175.668 35.5617C175.461 35.3812 175.239 35.1198 175.073 34.7674C174.905 34.4103 174.835 34.0446 174.835 33.712H180.835ZM177.795 30.1296C176.925 29.9122 175.899 29.848 174.859 29.848V35.848C175.739 35.848 176.185 35.9118 176.34 35.9504L177.795 30.1296ZM174.859 29.848C174.291 29.848 173.37 29.8843 172.157 29.9481L172.473 35.9399C173.692 35.8757 174.467 35.848 174.859 35.848V29.848ZM172.185 29.9468L169.977 30.0428L170.237 36.0372L172.445 35.9412L172.185 29.9468ZM170.107 30.04C169.827 30.04 169.652 30.013 169.557 29.9903C169.465 29.9684 169.472 29.9562 169.529 29.9933L166.269 35.0307C167.466 35.8051 168.839 36.04 170.107 36.04V30.04ZM169.529 29.9933C169.571 30.0202 169.731 30.1362 169.875 30.3828C170.028 30.6436 170.083 30.9139 170.083 31.12H164.083C164.083 32.8549 164.997 34.2073 166.269 35.0307L169.529 29.9933ZM170.083 31.12C170.083 31.0682 170.092 31.1625 170.019 31.3333C169.938 31.5223 169.801 31.701 169.636 31.8299C169.486 31.947 169.387 31.9649 169.431 31.9535C169.479 31.941 169.628 31.912 169.915 31.912V25.912C168.664 25.912 167.173 26.1418 165.947 27.0981C164.578 28.165 164.083 29.6947 164.083 31.12H170.083ZM169.915 31.912C171.389 31.912 172.948 31.9581 174.594 32.0512L174.933 26.0608C173.186 25.9619 171.513 25.912 169.915 25.912V31.912ZM174.672 32.0546C176.78 32.1185 178.263 32.152 179.083 32.152V26.152C178.367 26.152 176.971 26.1215 174.854 26.0574L174.672 32.0546ZM179.083 32.152C179.328 32.152 179.452 32.19 179.498 32.2083C179.536 32.223 179.563 32.2393 179.601 32.2794L183.941 28.1366C182.616 26.7485 180.888 26.152 179.083 26.152V32.152ZM179.65 32.3293C179.652 32.3311 179.685 32.3603 179.726 32.4792C179.772 32.6122 179.827 32.863 179.827 33.28H185.827C185.827 31.4267 185.334 29.5277 183.892 28.0867L179.65 32.3293ZM179.827 33.28C179.827 34.151 179.639 35.2981 179.16 36.7638L184.863 38.6282C185.471 36.7659 185.827 34.969 185.827 33.28H179.827ZM179.165 36.7473C178.714 38.1019 178.1 39.2933 177.334 40.3405L182.176 43.8835C183.33 42.3067 184.221 40.5541 184.857 38.6447L179.165 36.7473ZM177.355 40.312C176.81 41.0384 175.941 41.7096 174.542 42.225L176.616 47.855C178.865 47.0264 180.78 45.7456 182.155 43.912L177.355 40.312ZM174.586 42.2092C173.136 42.718 171.416 43 169.387 43V49C171.966 49 174.375 48.642 176.572 47.8708L174.586 42.2092ZM169.387 43C167.828 43 166.292 42.7499 164.768 42.242L162.87 47.934C164.995 48.6421 167.171 49 169.387 49V43ZM164.783 42.2471C163.317 41.7498 162.212 41.095 161.385 40.335L157.325 44.753C158.866 46.169 160.737 47.2102 162.855 47.9289L164.783 42.2471ZM161.404 40.3524C160.226 39.2517 159.285 37.943 158.579 36.3996L153.123 38.8964C154.145 41.129 155.54 43.0843 157.306 44.7356L161.404 40.3524ZM158.604 36.4552C157.917 34.8707 157.603 33.3713 157.603 31.936H151.603C151.603 34.2767 152.121 36.5853 153.098 38.8408L158.604 36.4552ZM157.603 31.936C157.603 29.5556 158.1 27.2973 159.102 25.1313L153.656 22.6127C152.29 25.5667 151.603 28.6844 151.603 31.936H157.603ZM159.108 25.1185C160.081 22.9883 161.41 21.4277 163.075 20.3258L159.764 15.3222C157.077 17.1003 155.045 19.5717 153.65 22.6255L159.108 25.1185ZM163.083 20.3201C163.61 19.9691 164.601 19.5438 166.262 19.1649L164.928 13.3151C162.942 13.7682 161.148 14.3989 159.755 15.3278L163.083 20.3201ZM166.251 19.1674C167.951 18.7864 169.389 18.616 170.587 18.616V12.616C168.841 12.616 166.951 12.8616 164.939 13.3126L166.251 19.1674ZM170.587 18.616C174.369 18.616 176.38 19.7321 177.488 21.3184L182.406 17.8816C179.803 14.1559 175.573 12.616 170.587 12.616V18.616ZM177.451 21.2641C177.498 21.3341 177.528 21.3872 177.548 21.4237C177.567 21.4602 177.572 21.4752 177.57 21.4694C177.567 21.4605 177.523 21.3413 177.523 21.136H183.523C183.523 19.8542 182.99 18.7555 182.443 17.9359L177.451 21.2641ZM177.523 21.136C177.523 20.9383 177.57 20.7545 177.637 20.6113C177.698 20.4792 177.754 20.4307 177.73 20.4547L181.972 24.6973C182.841 23.8283 183.523 22.6237 183.523 21.136H177.523ZM177.73 20.4547C177.676 20.5082 177.708 20.4613 177.837 20.3967C177.98 20.3253 178.213 20.248 178.507 20.248V26.248C180.031 26.248 181.197 25.4723 181.972 24.6973L177.73 20.4547ZM178.507 20.248C178.542 20.248 178.569 20.2494 178.587 20.2508C178.605 20.2522 178.616 20.2537 178.619 20.2541C178.625 20.2549 178.607 20.2526 178.563 20.2416L177.108 26.0624C177.52 26.1655 177.998 26.248 178.507 26.248V20.248ZM178.563 20.2416C178.544 20.2368 178.58 20.2442 178.653 20.2748C178.722 20.3036 178.875 20.3737 179.059 20.512L175.459 25.312C176.049 25.7541 176.683 25.9564 177.108 26.0624L178.563 20.2416Z" fill="black"/>
</svg>
