<svg width="594" height="597" viewBox="0 0 594 597" fill="none" xmlns="http://www.w3.org/2000/svg">
<path d="M510.66 156.068L510.632 156.076L510.604 156.085C459.204 172.371 394.66 180.708 313.161 180.708C233.394 180.708 167.364 172.371 115.715 156.084L114.963 158.468L115.662 156.068C88.2088 148.069 67.9608 138.89 54.417 129.22C40.8899 119.562 34.3791 109.665 33.5608 100.227C33.5905 91.8693 37.2373 84.7936 44.695 77.9334C50.1863 72.882 57.6654 68.0244 67.1083 62.97C66.4299 64.017 65.8285 65.0664 65.3001 66.1229C63.0938 70.5335 62.2206 74.9448 62.2206 79.6111C62.2206 91.2961 69.2854 101.235 81.9576 109.966C94.6197 118.689 113.289 126.509 137.493 133.954L137.535 133.966L137.578 133.978C182.584 146.101 244.902 155.093 314.894 155.093C387.345 155.093 446.942 146.099 493.702 133.358L493.714 133.354L493.726 133.351C518.933 126.211 538.042 118.312 550.901 109.464C563.766 100.611 570.76 90.516 570.76 78.9926C570.76 75.3976 569.978 71.9419 568.64 68.818C583.167 78.3893 590.51 89.5282 590.51 100.33C590.51 109.382 584.631 119.244 571.397 129.011C558.211 138.743 538.106 148.072 510.66 156.068ZM230.742 89.1866L228.516 89.4317V89.4525C209.781 91.2372 193.003 87.9523 180.371 81.2237C167.254 74.2372 158.724 63.6251 156.764 51.1323C156.051 46.0747 155.776 38.3323 160.344 31.3366C164.864 24.4156 174.544 17.6081 195.125 15.3336C205.686 14.4264 214.974 15.1314 221.822 17.2795C228.678 19.4303 232.507 22.8089 233.5 26.8848C233.66 28.3595 233.42 29.6242 232.715 30.851C232.106 31.9118 231.088 33.0506 229.46 34.2753C225.54 31.9952 220.234 30.3035 214.599 29.2875C208.179 28.1302 201.071 27.8029 194.611 28.6051C187.732 29.2462 181.081 31.0159 176.264 34.3261C171.295 37.7406 168.254 42.8529 169.137 49.6579L169.147 49.7363L169.162 49.8138C170.455 56.4531 174.862 61.6306 181.912 64.6945C188.866 67.7169 198.386 68.7006 210.256 67.2829C236.71 64.5342 251.187 52.7058 266.5 40.1939C268.074 38.9083 269.656 37.6155 271.261 36.3245C288.378 22.5569 308.603 8.45723 349.549 3.88791L349.558 3.88687L349.568 3.88575C413.922 -3.78678 448.114 21.4521 452.735 49.7391L452.736 49.748L452.737 49.7569C454.591 60.6141 451.829 71.3725 443.107 80.0327C434.315 88.7631 419.23 95.587 396.051 97.8734L396.026 97.8759L396.001 97.8788C375.525 100.315 359.512 98.0048 348.454 93.4858C337.302 88.9282 331.64 82.3557 330.708 76.4996C330.286 73.2877 330.786 69.5665 333.419 66.3404C335.862 63.3476 340.405 60.4558 348.628 58.97C350.257 64.53 353.873 70.0024 360.075 73.8765C367.124 78.2807 377.264 80.467 391.126 78.7255C401.149 77.7695 410.482 74.9817 417.141 70.5522C423.84 66.0967 428.167 59.6937 426.985 51.7511L426.983 51.7418L426.982 51.7325C425.671 43.3602 419.007 37.2516 409.084 33.6859C399.148 30.1157 385.503 28.8913 369.082 30.4575L369.06 30.4595L369.039 30.4619C335.508 34.2434 314.559 47.6703 295.163 60.6974C294.454 61.1739 293.747 61.6496 293.041 62.1241C274.476 74.6149 257.136 86.2811 230.742 89.1866ZM514.287 212.821L514.286 212.815C552.436 202.012 576.796 188.401 590.102 172.647C580.332 239.524 562.187 304.072 536.326 363.906C524.757 386.108 513.079 406.41 501.405 426.705C493.095 441.151 484.787 455.595 476.521 470.719L476.437 470.872L476.375 471.036C468.666 491.505 463.28 511.696 459.998 531.885H458.99L458.261 533.09C445.113 554.808 426.79 570.547 406.081 578.114L406.026 578.134L405.973 578.157C376.926 590.335 346.351 595.716 315.773 594.047L315.705 594.043H315.636H312.419H312.33L312.241 594.049C282.256 596.183 252.957 590.7 224.835 578.479L224.706 578.422L224.571 578.381C203.174 571.822 184.184 555.985 171.046 533.495C167.063 512.811 161.346 492.064 152.667 470.996L152.611 470.859L152.538 470.729C145.267 457.718 138.014 445.107 130.769 432.512C117.994 410.301 105.246 388.137 92.4708 363.903C83.6182 343.306 75.7367 321.15 68.333 298.64L67.0133 294.628L64.1308 297.715C60.575 301.523 57.2612 305.662 54.2002 310.443L54.1561 310.512L54.1166 310.584C40.7363 334.841 35.6864 362.295 40.7117 391.895C42.4352 407.117 46.6562 421.751 53.1262 434.88C59.5922 448.002 68.1744 459.357 78.3622 468.214C94.1284 483.902 110.074 492.77 128.259 495.138C127.965 495.275 127.671 495.412 127.378 495.549C125.36 496.493 123.353 497.431 121.394 498.312C116.007 500.735 110.826 502.806 106.027 503.83L106.003 503.835L105.979 503.84C93.0997 506.851 81.1086 506.829 69.7652 503.563C58.4172 500.296 47.5672 493.739 37.0395 483.457L37.0246 483.443L37.0094 483.428C27.1269 474.094 18.9254 462.191 12.9854 448.497C7.04798 434.809 3.5174 419.671 2.64491 404.103C1.23815 369.843 10.1136 336.214 27.458 309.792L27.4737 309.769L27.4888 309.744C36.9877 294.528 47.4338 283.306 59.0818 274.209L60.4066 273.175L59.9484 271.558C50.9814 239.906 43.85 206.735 39.2925 172.506C44.2435 178.366 51.0987 184.039 59.9733 189.517C73.2927 197.74 91.3195 205.623 114.698 213.081L114.746 213.097L114.795 213.11C166.723 227.397 233.499 237.939 315.389 237.939C395.506 237.939 462.051 228.05 514.287 212.821Z" stroke="white" stroke-width="5"/>
<rect x="119.5" y="295.5" width="391" height="96" rx="48" stroke="white" stroke-width="5"/>
<path d="M297.134 310.664L294.603 309.053L294.593 309.069L294.583 309.085L297.134 310.664ZM307.63 309L306.288 311.683L306.288 311.683L307.63 309ZM309.422 327.56L312.417 327.726L312.418 327.722L309.422 327.56ZM309.422 360.072L306.425 360.202L306.425 360.208L309.422 360.072ZM309.806 382.856L306.812 382.669L306.806 382.762V382.856H309.806ZM307.502 386.952L309.487 389.202L309.495 389.194L307.502 386.952ZM296.494 388.104L295.072 390.745L295.189 390.809L295.312 390.861L296.494 388.104ZM294.19 386.184L296.734 384.594L296.63 384.427L296.505 384.275L294.19 386.184ZM276.654 361.352L279.161 359.705L279.158 359.699L276.654 361.352ZM255.534 331.4L257.888 329.54L251.396 321.324L252.552 331.731L255.534 331.4ZM256.302 369.288L253.303 369.207L253.303 369.227L253.302 369.247L256.302 369.288ZM255.79 381.576L258.762 381.986L258.763 381.975L258.765 381.964L255.79 381.576ZM253.486 387.336L251.228 385.36L251.224 385.366L251.219 385.371L253.486 387.336ZM243.886 387.72L241.508 389.549L241.587 389.652L241.675 389.747L243.886 387.72ZM242.35 382.088L239.351 382.161L239.352 382.221L239.356 382.281L242.35 382.088ZM242.99 366.344L239.999 366.114L239.998 366.125L242.99 366.344ZM243.374 360.584L246.368 360.771L246.368 360.771L243.374 360.584ZM242.734 333.064L239.74 333.247L239.741 333.273L239.743 333.299L242.734 333.064ZM244.142 309.768L242.386 307.336L242.352 307.36L242.32 307.385L244.142 309.768ZM254.766 309.384L257.113 307.515L256.664 306.951L256.007 306.653L254.766 309.384ZM284.59 350.6L287.102 348.96L287.083 348.931L287.063 348.901L284.59 350.6ZM296.622 369.032L294.11 370.672L299.052 378.243L299.616 369.219L296.622 369.032ZM296.494 349.192L299.492 349.09L299.492 349.09L296.494 349.192ZM296.11 338.952L299.107 338.809L299.106 338.798L296.11 338.952ZM298.47 317.064C298.47 315.049 298.917 313.483 299.685 312.243L294.583 309.085C293.132 311.429 292.47 314.13 292.47 317.064H298.47ZM299.665 312.275C300.286 311.299 301.06 310.848 302.382 310.848V304.848C299.096 304.848 296.372 306.274 294.603 309.053L299.665 312.275ZM302.382 310.848C303.946 310.848 305.225 311.152 306.288 311.683L308.972 306.317C306.963 305.312 304.744 304.848 302.382 304.848V310.848ZM306.288 311.683C306.625 311.851 306.737 311.999 306.786 312.079C306.838 312.168 306.934 312.378 306.934 312.84H312.934C312.934 311.51 312.646 310.184 311.93 308.993C311.211 307.793 310.171 306.917 308.972 306.317L306.288 311.683ZM306.934 312.84C306.934 316.258 306.767 321.102 306.426 327.398L312.418 327.722C312.76 321.389 312.934 316.419 312.934 312.84H306.934ZM306.427 327.394C306.085 333.548 305.91 338.182 305.91 341.256H311.91C311.91 338.357 312.077 333.86 312.417 327.726L306.427 327.394ZM305.91 341.256C305.91 346.012 306.083 352.333 306.425 360.202L312.419 359.942C312.079 352.11 311.91 345.887 311.91 341.256H305.91ZM306.425 360.208C306.766 367.711 306.934 373.158 306.934 376.584H312.934C312.934 373.013 312.761 367.451 312.419 359.936L306.425 360.208ZM306.934 376.584C306.934 379.388 306.891 381.402 306.812 382.669L312.8 383.043C312.892 381.58 312.934 379.412 312.934 376.584H306.934ZM306.806 382.856C306.806 383.009 306.73 383.625 305.509 384.71L309.495 389.194C311.346 387.549 312.806 385.434 312.806 382.856H306.806ZM305.517 384.702C304.858 385.284 303.467 385.872 300.718 385.872V391.872C304.113 391.872 307.245 391.18 309.487 389.202L305.517 384.702ZM300.718 385.872C299.406 385.872 298.417 385.664 297.676 385.347L295.312 390.861C296.96 391.568 298.788 391.872 300.718 391.872V385.872ZM297.916 385.463C297.03 384.985 296.771 384.653 296.734 384.594L291.646 387.774C292.463 389.081 293.739 390.028 295.072 390.745L297.916 385.463ZM296.505 384.275C292.605 379.546 286.836 371.387 279.161 359.705L274.147 362.999C281.832 374.699 287.753 383.094 291.875 388.093L296.505 384.275ZM279.158 359.699C270.522 346.617 263.428 336.551 257.888 329.54L253.18 333.26C258.563 340.073 265.549 349.975 274.15 363.005L279.158 359.699ZM252.552 331.731C253.219 337.729 253.558 345.121 253.558 353.928H259.558C259.558 344.986 259.215 337.359 258.516 331.069L252.552 331.731ZM253.558 353.928C253.558 357.815 253.473 362.905 253.303 369.207L259.301 369.369C259.472 363.041 259.558 357.891 259.558 353.928H253.558ZM253.302 369.247C253.216 375.512 253.045 379.429 252.815 381.188L258.765 381.964C259.047 379.798 259.217 375.523 259.302 369.329L253.302 369.247ZM252.818 381.166C252.528 383.272 251.917 384.573 251.228 385.36L255.744 389.312C257.444 387.368 258.37 384.829 258.762 381.986L252.818 381.166ZM251.219 385.371C250.902 385.737 250.124 386.256 248.11 386.256V392.256C251.045 392.256 253.851 391.495 255.753 389.301L251.219 385.371ZM248.11 386.256C246.765 386.256 246.289 385.901 246.097 385.693L241.675 389.747C243.361 391.587 245.7 392.256 248.11 392.256V386.256ZM246.264 385.891C245.976 385.516 245.505 384.397 245.344 381.895L239.356 382.281C239.536 385.07 240.09 387.705 241.508 389.549L246.264 385.891ZM245.349 382.015C245.267 378.668 245.472 373.539 245.982 366.563L239.998 366.125C239.484 373.144 239.262 378.511 239.351 382.161L245.349 382.015ZM245.981 366.574C246.068 365.441 246.198 363.501 246.368 360.771L240.38 360.397C240.209 363.128 240.082 365.028 239.999 366.114L245.981 366.574ZM246.368 360.771C246.542 357.995 246.63 355.498 246.63 353.288H240.63C240.63 355.344 240.548 357.712 240.38 360.397L246.368 360.771ZM246.63 353.288C246.63 347.303 246.327 340.48 245.725 332.829L239.743 333.299C240.336 340.837 240.63 347.497 240.63 353.288H246.63ZM245.728 332.881C245.217 324.528 244.966 318.418 244.966 314.504H238.966C238.966 318.611 239.227 324.874 239.74 333.247L245.728 332.881ZM244.966 314.504C244.966 313.261 245.353 312.618 245.964 312.151L242.32 307.385C240.029 309.136 238.966 311.651 238.966 314.504H244.966ZM245.898 312.2C246.904 311.474 248.034 311.104 249.39 311.104V305.104C246.821 305.104 244.452 305.843 242.386 307.336L245.898 312.2ZM249.39 311.104C250.589 311.104 251.957 311.403 253.525 312.115L256.007 306.653C253.82 305.659 251.605 305.104 249.39 305.104V311.104ZM252.419 311.253C259.691 320.385 269.585 334.054 282.117 352.299L287.063 348.901C274.507 330.623 264.518 316.815 257.113 307.515L252.419 311.253ZM282.078 352.24L294.11 370.672L299.134 367.392L287.102 348.96L282.078 352.24ZM299.616 369.219C299.707 367.761 299.75 365.768 299.75 363.272H293.75C293.75 365.725 293.707 367.573 293.628 368.845L299.616 369.219ZM299.75 363.272C299.75 358.881 299.664 354.154 299.492 349.09L293.496 349.294C293.665 354.3 293.75 358.959 293.75 363.272H299.75ZM299.492 349.09C299.322 344.058 299.193 340.625 299.107 338.809L293.113 339.095C293.198 340.863 293.325 344.257 293.496 349.294L299.492 349.09ZM299.106 338.798C298.681 330.557 298.47 323.314 298.47 317.064H292.47C292.47 323.443 292.685 330.793 293.114 339.106L299.106 338.798ZM387.093 329.736L388.893 327.336L388.826 327.286L388.757 327.24L387.093 329.736ZM383.381 326.792L385.422 324.594L385.326 324.504L385.223 324.424L383.381 326.792ZM375.573 321.544L374.107 324.162L374.148 324.184L374.189 324.206L375.573 321.544ZM357.141 321.16L356.413 318.25L356.405 318.252L356.398 318.254L357.141 321.16ZM348.053 325.128L346.309 322.687L346.29 322.7L346.271 322.714L348.053 325.128ZM340.757 335.624L343.63 336.486L343.633 336.478L343.635 336.47L340.757 335.624ZM344.981 368.904L342.638 370.778L342.682 370.832L342.728 370.884L344.981 368.904ZM353.941 375.432L352.735 378.179L352.747 378.184L352.759 378.189L353.941 375.432ZM383.125 370.824L385.388 372.794L385.434 372.74L385.478 372.685L383.125 370.824ZM385.429 355.464L386.157 352.554L386.157 352.554L385.429 355.464ZM373.525 354.44L373.897 351.463L373.877 351.461L373.856 351.458L373.525 354.44ZM370.965 354.184L370.666 357.169L370.68 357.17L370.693 357.172L370.965 354.184ZM362.389 352.648L364.019 350.129L364.019 350.129L362.389 352.648ZM362.261 344.584L363.961 347.056L364.012 347.021L364.061 346.984L362.261 344.584ZM379.925 343.56L380.125 340.567L380.112 340.566L379.925 343.56ZM397.973 346.888L395.803 348.959L395.827 348.985L395.852 349.009L397.973 346.888ZM398.613 366.728L401.464 367.66L401.464 367.66L398.613 366.728ZM392.469 378.632L390.076 376.823L390.062 376.841L390.048 376.86L392.469 378.632ZM381.077 386.696L380.029 383.885L380.021 383.888L380.013 383.891L381.077 386.696ZM350.229 386.952L349.176 389.761L349.198 389.769L349.22 389.777L350.229 386.952ZM338.197 379.784L336.148 381.976L336.156 381.983L336.165 381.991L338.197 379.784ZM328.853 366.728L326.1 367.921L326.112 367.949L326.125 367.976L328.853 366.728ZM329.621 329.736L326.848 328.592L326.844 328.601L326.84 328.61L329.621 329.736ZM342.421 313.864L344.068 316.372L344.076 316.366L344.085 316.36L342.421 313.864ZM354.197 309.64L354.813 312.576L354.813 312.576L354.197 309.64ZM383.509 311.688L382.09 314.331L382.09 314.331L383.509 311.688ZM394.261 320.904L396.757 319.24L396.74 319.213L396.721 319.187L394.261 320.904ZM388.629 330.376L389.357 327.466L389.357 327.466L388.629 330.376ZM388.757 327.24C387.618 326.481 386.506 325.6 385.422 324.594L381.34 328.99C382.645 330.202 384.008 331.285 385.429 332.232L388.757 327.24ZM385.223 324.424C382.084 321.982 379.319 320.111 376.957 318.882L374.189 324.206C376.094 325.196 378.534 326.823 381.539 329.16L385.223 324.424ZM377.039 318.926C374.421 317.461 371.52 316.752 368.405 316.752V322.752C370.58 322.752 372.458 323.238 374.107 324.162L377.039 318.926ZM368.405 316.752C364.398 316.752 360.399 317.253 356.413 318.25L357.869 324.07C361.393 323.189 364.903 322.752 368.405 322.752V316.752ZM356.398 318.254C352.468 319.259 349.074 320.712 346.309 322.687L349.797 327.569C351.811 326.131 354.475 324.939 357.885 324.066L356.398 318.254ZM346.271 322.714C342.15 325.756 339.34 329.81 337.879 334.777L343.635 336.47C344.734 332.734 346.788 329.791 349.835 327.542L346.271 322.714ZM337.884 334.762C336.494 339.395 335.837 344.953 335.837 351.368H341.837C341.837 345.324 342.46 340.387 343.63 336.486L337.884 334.762ZM335.837 351.368C335.837 358.618 338.116 365.125 342.638 370.778L347.324 367.03C343.654 362.443 341.837 357.259 341.837 351.368H335.837ZM342.728 370.884C345.497 374.036 348.843 376.47 352.735 378.179L355.147 372.685C352.041 371.322 349.414 369.404 347.234 366.924L342.728 370.884ZM352.759 378.189C356.684 379.871 360.668 380.736 364.693 380.736V374.736C361.55 374.736 358.366 374.065 355.123 372.675L352.759 378.189ZM364.693 380.736C373.515 380.736 380.625 378.266 385.388 372.794L380.862 368.854C377.604 372.598 372.426 374.736 364.693 374.736V380.736ZM385.478 372.685C388.853 368.417 390.477 363.257 390.477 357.384H384.477C384.477 362.093 383.2 365.893 380.772 368.963L385.478 372.685ZM390.477 357.384C390.477 356.088 389.965 354.901 389.017 354.011C388.161 353.209 387.105 352.791 386.157 352.554L384.701 358.374C384.891 358.422 384.992 358.464 385.029 358.481C385.065 358.499 385.008 358.478 384.913 358.389C384.811 358.293 384.687 358.139 384.595 357.927C384.504 357.715 384.477 357.521 384.477 357.384H390.477ZM386.157 352.554C384.434 352.123 382.181 351.952 379.541 351.952V357.952C382.021 357.952 383.693 358.122 384.701 358.374L386.157 352.554ZM379.541 351.952C378.46 351.952 376.611 351.802 373.897 351.463L373.153 357.417C375.9 357.76 378.062 357.952 379.541 357.952V351.952ZM373.856 351.458C373.065 351.37 372.191 351.283 371.237 351.196L370.693 357.172C371.616 357.256 372.449 357.339 373.194 357.422L373.856 351.458ZM371.264 351.199C370.302 351.103 369.306 351.056 368.277 351.056V357.056C369.125 357.056 369.921 357.095 370.666 357.169L371.264 351.199ZM368.277 351.056C366.143 351.056 364.817 350.646 364.019 350.129L360.759 355.167C362.863 356.528 365.462 357.056 368.277 357.056V351.056ZM364.019 350.129C363.233 349.621 363.213 349.291 363.213 349.064H357.213C357.213 351.739 358.643 353.798 360.759 355.167L364.019 350.129ZM363.213 349.064C363.213 347.74 363.605 347.301 363.961 347.056L360.561 342.112C358.186 343.745 357.213 346.292 357.213 349.064H363.213ZM364.061 346.984C364.752 346.466 365.885 346.048 367.765 346.048V340.048C365.037 340.048 362.5 340.654 360.461 342.184L364.061 346.984ZM367.765 346.048C370.312 346.048 374.288 346.214 379.738 346.554L380.112 340.566C374.639 340.224 370.509 340.048 367.765 340.048V346.048ZM379.725 346.553C384.846 346.895 388.561 347.072 390.805 347.072V341.072C388.782 341.072 385.244 340.908 380.125 340.567L379.725 346.553ZM390.805 347.072C393.107 347.072 394.664 347.766 395.803 348.959L400.143 344.817C397.698 342.255 394.476 341.072 390.805 341.072V347.072ZM395.852 349.009C396.992 350.15 397.789 352.005 397.789 355.08H403.789C403.789 350.987 402.709 347.381 400.094 344.767L395.852 349.009ZM397.789 355.08C397.789 357.992 397.15 361.548 395.762 365.796L401.464 367.66C402.977 363.033 403.789 358.824 403.789 355.08H397.789ZM395.762 365.796C394.407 369.938 392.508 373.606 390.076 376.823L394.862 380.441C397.72 376.661 399.917 372.393 401.464 367.66L395.762 365.796ZM390.048 376.86C387.909 379.784 384.646 382.163 380.029 383.885L382.125 389.507C387.577 387.474 391.909 384.478 394.89 380.404L390.048 376.86ZM380.013 383.891C375.444 385.624 370.349 386.512 364.693 386.512V392.512C370.984 392.512 376.811 391.523 382.141 389.501L380.013 383.891ZM364.693 386.512C360.188 386.512 355.707 385.723 351.238 384.127L349.22 389.777C354.308 391.594 359.47 392.512 364.693 392.512V386.512ZM351.282 384.143C346.809 382.466 343.146 380.264 340.229 377.577L336.165 381.991C339.733 385.277 344.091 387.854 349.176 389.761L351.282 384.143ZM340.246 377.592C336.615 374.198 333.727 370.17 331.581 365.48L326.125 367.976C328.587 373.356 331.929 378.031 336.148 381.976L340.246 377.592ZM331.606 365.535C329.532 360.751 328.525 356.078 328.525 351.496H322.525C322.525 356.983 323.736 362.465 326.1 367.921L331.606 365.535ZM328.525 351.496C328.525 344.09 329.825 337.222 332.402 330.862L326.84 328.61C323.955 335.733 322.525 343.371 322.525 351.496H328.525ZM332.394 330.88C335 324.564 338.895 319.769 344.068 316.372L340.774 311.356C334.512 315.469 329.874 321.254 326.848 328.592L332.394 330.88ZM344.085 316.36C346.172 314.969 349.656 313.657 354.813 312.576L353.581 306.704C348.156 307.841 343.79 309.346 340.757 311.368L344.085 316.36ZM354.813 312.576C359.966 311.496 364.402 310.976 368.149 310.976V304.976C363.874 304.976 359.01 305.566 353.581 306.704L354.813 312.576ZM368.149 310.976C373.325 310.976 377.951 312.108 382.09 314.331L384.928 309.045C379.851 306.318 374.237 304.976 368.149 304.976V310.976ZM382.09 314.331C386.353 316.62 389.552 319.398 391.801 322.621L396.721 319.187C393.85 315.072 389.881 311.705 384.928 309.045L382.09 314.331ZM391.765 322.568C392.626 323.86 392.797 324.639 392.797 325H398.797C398.797 322.971 397.944 321.02 396.757 319.24L391.765 322.568ZM392.797 325C392.797 325.39 392.657 325.945 391.884 326.719L396.126 330.961C397.742 329.346 398.797 327.341 398.797 325H392.797ZM391.884 326.719C391.016 327.586 390.539 327.632 390.421 327.632V333.632C392.692 333.632 394.605 332.483 396.126 330.961L391.884 326.719ZM390.421 327.632C390.226 327.632 389.883 327.597 389.357 327.466L387.901 333.286C388.74 333.496 389.592 333.632 390.421 333.632V327.632ZM389.357 327.466C389.124 327.407 388.974 327.355 388.887 327.319C388.796 327.281 388.815 327.278 388.893 327.336L385.293 332.136C386.096 332.738 387.05 333.074 387.901 333.286L389.357 327.466Z" fill="white"/>
</svg>
